# BZFlag low tank, extracted from the BZFlag source tree by
# scripts/extract-bzflag-lod-tanks.mjs. The geometry is upstream's own,
# from src/geometry/models/tank (BZFlag, LGPL 2.1).

o body
v 0.877000 1.111000 -2.575000
v -0.877000 1.111000 -2.575000
v 0.877000 1.238000 2.835000
v 0.877000 1.238000 2.835000
v -0.877000 1.111000 -2.575000
v -0.877000 1.238000 2.835000
v 0.877000 1.238000 2.835000
v -0.877000 1.238000 2.835000
v 0.877000 0.200000 2.229000
v 0.877000 0.200000 2.229000
v -0.877000 1.238000 2.835000
v -0.877000 0.200000 2.229000
v 0.877000 0.200000 2.229000
v -0.877000 0.200000 2.229000
v 0.877000 0.200000 -2.430000
v 0.877000 0.200000 -2.430000
v -0.877000 0.200000 2.229000
v -0.877000 0.200000 -2.430000
v 0.877000 0.200000 -2.430000
v -0.877000 0.200000 -2.430000
v 0.877000 1.111000 -2.575000
v 0.877000 1.111000 -2.575000
v -0.877000 0.200000 -2.430000
v -0.877000 1.111000 -2.575000
vt 1.360000 1.970000
vt 0.822000 1.710000
vt 2.030000 0.541000
vt 2.030000 0.541000
vt 0.822000 1.710000
vt 1.490000 0.289000
vt 2.030000 0.541000
vt 1.490000 0.289000
vt 1.840000 0.932000
vt 1.840000 0.932000
vt 1.490000 0.289000
vt 1.310000 0.680000
vt 1.840000 0.932000
vt 1.310000 0.680000
vt 1.350000 1.980000
vt 1.350000 1.980000
vt 1.310000 0.680000
vt 0.815000 1.730000
vt 1.350000 1.980000
vt 0.815000 1.730000
vt 1.360000 1.970000
vt 1.360000 1.970000
vt 0.815000 1.730000
vt 0.822000 1.710000
vn 0.000000 0.999722 -0.023598
vn 0.000000 0.999722 -0.023598
vn 0.000000 0.999722 -0.023598
vn 0.000000 0.999722 -0.023598
vn 0.000000 0.999722 -0.023598
vn 0.000000 0.999722 -0.023598
vn 0.000000 0.999722 -0.023598
vn 0.000000 0.999722 -0.023598
vn 0.000000 -0.439723 0.898134
vn 0.000000 -0.439723 0.898134
vn 0.000000 0.999722 -0.023598
vn 0.000000 -0.439723 0.898134
vn 0.000000 -0.439723 0.898134
vn 0.000000 -0.439723 0.898134
vn 0.000000 -1.000000 0.000000
vn 0.000000 -1.000000 0.000000
vn 0.000000 -0.439723 0.898134
vn 0.000000 -1.000000 0.000000
vn 0.000000 -1.000000 0.000000
vn 0.000000 -1.000000 0.000000
vn 0.000000 -0.129459 -0.991585
vn 0.000000 -0.129459 -0.991585
vn 0.000000 -1.000000 0.000000
vn 0.000000 -0.129459 -0.991585
f 1/1/1 2/2/2 3/3/3
f 4/4/4 5/5/5 6/6/6
f 7/7/7 8/8/8 9/9/9
f 10/10/10 11/11/11 12/12/12
f 13/13/13 14/14/14 15/15/15
f 16/16/16 17/17/17 18/18/18
f 19/19/19 20/20/20 21/21/21
f 22/22/22 23/23/23 24/24/24

o turret
v 0.516000 1.040000 -1.480000
v -0.516000 1.040000 -1.480000
v 0.434000 1.790000 -1.580000
v 0.434000 1.790000 -1.580000
v -0.516000 1.040000 -1.480000
v -0.435000 1.790000 -1.580000
v 0.434000 1.790000 -1.580000
v -0.435000 1.790000 -1.580000
v 0.765000 2.050000 1.370000
v 0.765000 2.050000 1.370000
v -0.435000 1.790000 -1.580000
v -0.764000 2.050000 1.370000
v 0.765000 2.050000 1.370000
v -0.764000 2.050000 1.370000
v 1.060000 1.040000 0.456000
v 1.060000 1.040000 0.456000
v -0.764000 2.050000 1.370000
v -1.080000 1.040000 0.456000
v 1.060000 1.040000 0.456000
v 0.516000 1.040000 -1.480000
v 0.434000 1.790000 -1.580000
v 1.060000 1.040000 0.456000
v 0.434000 1.790000 -1.580000
v 0.765000 2.050000 1.370000
v -1.080000 1.040000 0.456000
v -0.764000 2.050000 1.370000
v -0.435000 1.790000 -1.580000
v -1.080000 1.040000 0.456000
v -0.435000 1.790000 -1.580000
v -0.516000 1.040000 -1.480000
vt 0.107000 -0.009000
vt 0.617000 -0.559000
vt 0.224000 -0.178000
vt 0.224000 -0.178000
vt 0.617000 -0.559000
vt 0.457000 -0.429000
vt 0.224000 -0.178000
vt 0.457000 -0.429000
vt 0.866000 0.402000
vt 0.866000 0.402000
vt 0.457000 -0.429000
vt 1.080000 0.169000
vt 0.866000 0.402000
vt 1.080000 0.169000
vt 0.559000 0.339000
vt 0.559000 0.339000
vt 1.080000 0.169000
vt 0.996000 -0.132000
vt 0.559000 0.339000
vt 0.107000 -0.009000
vt 0.224000 -0.178000
vt 0.559000 0.339000
vt 0.224000 -0.178000
vt 0.866000 0.402000
vt 0.996000 -0.132000
vt 1.080000 0.169000
vt 0.457000 -0.429000
vt 0.996000 -0.132000
vt 0.457000 -0.429000
vt 0.617000 -0.559000
vn 0.000000 -0.132164 -0.991228
vn 0.000000 -0.132164 -0.991228
vn 0.000000 -0.132164 -0.991228
vn 0.000000 -0.132164 -0.991228
vn 0.000000 -0.132164 -0.991228
vn 0.000000 -0.132164 -0.991228
vn 0.000000 -0.132164 -0.991228
vn 0.000000 -0.132164 -0.991228
vn 0.000000 0.996139 -0.087795
vn 0.000000 0.996139 -0.087795
vn 0.000000 -0.132164 -0.991228
vn 0.000000 0.996139 -0.087795
vn 0.000000 0.996139 -0.087795
vn 0.000000 0.996139 -0.087795
vn 0.000000 -0.670990 0.741466
vn 0.000000 -0.670990 0.741466
vn 0.000000 0.996139 -0.087795
vn 0.000000 -0.670990 0.741466
vn 0.940289 0.286676 -0.183504
vn 0.960420 0.069023 -0.269870
vn 0.910814 0.389585 -0.136533
vn 0.940289 0.286676 -0.183504
vn 0.910814 0.389585 -0.136533
vn 0.910814 0.389585 -0.136533
vn -0.954665 0.182426 -0.235235
vn -0.903492 0.406265 -0.136569
vn -0.957980 0.066251 -0.279081
vn -0.954665 0.182426 -0.235235
vn -0.957980 0.066251 -0.279081
vn -0.957980 0.066251 -0.279081
f 25/25/25 26/26/26 27/27/27
f 28/28/28 29/29/29 30/30/30
f 31/31/31 32/32/32 33/33/33
f 34/34/34 35/35/35 36/36/36
f 37/37/37 38/38/38 39/39/39
f 40/40/40 41/41/41 42/42/42
f 43/43/43 44/44/44 45/45/45
f 46/46/46 47/47/47 48/48/48
f 49/49/49 50/50/50 51/51/51
f 52/52/52 53/53/53 54/54/54

o barrel
v 0.180000 1.530000 -1.570000
v 0.126000 1.530000 -4.940000
v 0.000000 1.710000 -1.570000
v 0.000000 1.710000 -1.570000
v 0.126000 1.530000 -4.940000
v 0.000000 1.660000 -4.940000
v 0.000000 1.710000 -1.570000
v 0.000000 1.660000 -4.940000
v -0.180000 1.530000 -1.570000
v -0.180000 1.530000 -1.570000
v 0.000000 1.660000 -4.940000
v -0.126000 1.530000 -4.940000
v -0.180000 1.530000 -1.570000
v -0.126000 1.530000 -4.940000
v 0.000000 1.350000 -1.570000
v 0.000000 1.350000 -1.570000
v -0.126000 1.530000 -4.940000
v 0.000000 1.410000 -4.940000
v 0.000000 1.350000 -1.570000
v 0.000000 1.410000 -4.940000
v 0.180000 1.530000 -1.570000
v 0.180000 1.530000 -1.570000
v 0.000000 1.410000 -4.940000
v 0.126000 1.530000 -4.940000
v 0.000000 1.410000 -4.940000
v -0.126000 1.530000 -4.940000
v 0.000000 1.660000 -4.940000
v 0.000000 1.410000 -4.940000
v 0.000000 1.660000 -4.940000
v 0.126000 1.530000 -4.940000
vt 0.000000 0.000000
vt 0.000000 0.000000
vt 0.000000 0.000000
vt 0.000000 0.000000
vt 0.000000 0.000000
vt 0.000000 0.000000
vt 0.000000 0.000000
vt 0.000000 0.000000
vt 0.000000 0.000000
vt 0.000000 0.000000
vt 0.000000 0.000000
vt 0.000000 0.000000
vt 0.000000 0.000000
vt 0.000000 0.000000
vt 0.000000 0.000000
vt 0.000000 0.000000
vt 0.000000 0.000000
vt 0.000000 0.000000
vt 0.000000 0.000000
vt 0.000000 0.000000
vt 0.000000 0.000000
vt 0.000000 0.000000
vt 0.000000 0.000000
vt 0.000000 0.000000
vt 0.000000 0.000000
vt 0.000000 0.000000
vt 0.000000 0.000000
vt 0.000000 0.000000
vt 0.000000 0.000000
vt 0.000000 0.000000
vn 1.000000 0.000000 0.000000
vn 1.000000 0.000000 0.000000
vn 0.000000 1.000000 0.000000
vn 0.000000 1.000000 0.000000
vn 1.000000 0.000000 0.000000
vn 0.000000 1.000000 0.000000
vn 0.000000 1.000000 0.000000
vn 0.000000 1.000000 0.000000
vn -1.000000 0.000000 0.000000
vn -1.000000 0.000000 0.000000
vn 0.000000 1.000000 0.000000
vn -1.000000 0.000000 0.000000
vn -1.000000 0.000000 0.000000
vn -1.000000 0.000000 0.000000
vn 0.000000 -1.000000 0.000000
vn 0.000000 -1.000000 0.000000
vn -1.000000 0.000000 0.000000
vn 0.000000 -1.000000 0.000000
vn 0.000000 -1.000000 0.000000
vn 0.000000 -1.000000 0.000000
vn 1.000000 0.000000 0.000000
vn 1.000000 0.000000 0.000000
vn 0.000000 -1.000000 0.000000
vn 1.000000 0.000000 0.000000
vn 0.000000 0.000000 -1.000000
vn 0.000000 0.000000 -1.000000
vn 0.000000 0.000000 -1.000000
vn 0.000000 0.000000 -1.000000
vn 0.000000 0.000000 -1.000000
vn 0.000000 0.000000 -1.000000
f 55/55/55 56/56/56 57/57/57
f 58/58/58 59/59/59 60/60/60
f 61/61/61 62/62/62 63/63/63
f 64/64/64 65/65/65 66/66/66
f 67/67/67 68/68/68 69/69/69
f 70/70/70 71/71/71 72/72/72
f 73/73/73 74/74/74 75/75/75
f 76/76/76 77/77/77 78/78/78
f 79/79/79 80/80/80 81/81/81
f 82/82/82 83/83/83 84/84/84

o ltread
v -0.877000 1.294000 -2.730000
v -1.400000 1.294000 -2.730000
v -0.877000 1.410000 2.970000
v -0.877000 1.410000 2.970000
v -1.400000 1.294000 -2.730000
v -1.400000 1.410000 2.970000
v -0.877000 1.410000 2.970000
v -1.400000 1.410000 2.970000
v -0.877000 0.000000 2.229000
v -0.877000 0.000000 2.229000
v -1.400000 1.410000 2.970000
v -1.400000 0.000000 2.229000
v -0.877000 0.000000 2.229000
v -1.400000 0.000000 2.229000
v -0.877000 0.000000 -2.597000
v -0.877000 0.000000 -2.597000
v -1.400000 0.000000 2.229000
v -1.400000 0.000000 -2.597000
v -0.877000 0.000000 -2.597000
v -1.400000 0.000000 -2.597000
v -0.877000 1.294000 -2.730000
v -0.877000 1.294000 -2.730000
v -1.400000 0.000000 -2.597000
v -1.400000 1.294000 -2.730000
v -0.877000 0.000000 2.229000
v -0.877000 0.000000 -2.597000
v -0.877000 1.294000 -2.730000
v -0.877000 0.000000 2.229000
v -0.877000 1.294000 -2.730000
v -0.877000 1.410000 2.970000
v -1.400000 0.000000 2.229000
v -1.400000 1.410000 2.970000
v -1.400000 1.294000 -2.730000
v -1.400000 0.000000 2.229000
v -1.400000 1.294000 -2.730000
v -1.400000 0.000000 -2.597000
vt 0.033000 0.684000
vt 0.095000 0.570000
vt 0.759000 1.070000
vt 0.759000 1.070000
vt 0.095000 0.570000
vt 0.813000 0.970000
vt 0.759000 1.070000
vt 0.813000 0.970000
vt 0.375000 1.300000
vt 0.375000 1.300000
vt 0.813000 0.970000
vt 0.800000 0.523000
vt 0.375000 1.300000
vt 0.800000 0.523000
vt -0.156000 1.010000
vt -0.156000 1.010000
vt 0.800000 0.523000
vt 0.268000 0.233000
vt -0.156000 1.010000
vt 0.268000 0.233000
vt 0.033000 0.684000
vt 0.033000 0.684000
vt 0.268000 0.233000
vt 0.095000 0.570000
vt 0.375000 1.300000
vt -0.156000 1.010000
vt 0.033000 0.684000
vt 0.375000 1.300000
vt 0.033000 0.684000
vt 0.759000 1.070000
vt 0.800000 0.523000
vt 0.813000 0.970000
vt 0.095000 0.570000
vt 0.800000 0.523000
vt 0.095000 0.570000
vt 0.268000 0.233000
vn 0.000000 0.999793 -0.020362
vn 0.000000 0.999793 -0.020362
vn 0.000000 0.999793 -0.020362
vn 0.000000 0.999793 -0.020362
vn 0.000000 0.999793 -0.020362
vn 0.000000 0.999793 -0.020362
vn 0.000000 0.999793 -0.020362
vn 0.000000 0.999793 -0.020362
vn 0.000000 -0.465341 0.885132
vn 0.000000 -0.465341 0.885132
vn 0.000000 0.999793 -0.020362
vn 0.000000 -0.465341 0.885132
vn 0.000000 -0.465341 0.885132
vn 0.000000 -0.465341 0.885132
vn 0.000000 -1.000000 0.000000
vn 0.000000 -1.000000 0.000000
vn 0.000000 -0.465341 0.885132
vn 0.000000 -1.000000 0.000000
vn 0.000000 -1.000000 0.000000
vn 0.000000 -1.000000 0.000000
vn 0.000000 -0.102699 -0.994712
vn 0.000000 -0.102699 -0.994712
vn 0.000000 -1.000000 0.000000
vn 0.000000 -0.102699 -0.994712
vn 1.000000 0.000000 0.000000
vn 1.000000 0.000000 0.000000
vn 1.000000 0.000000 0.000000
vn 1.000000 0.000000 0.000000
vn 1.000000 0.000000 0.000000
vn 1.000000 0.000000 0.000000
vn -1.000000 0.000000 0.000000
vn -1.000000 0.000000 0.000000
vn -1.000000 0.000000 0.000000
vn -1.000000 0.000000 0.000000
vn -1.000000 0.000000 0.000000
vn -1.000000 0.000000 0.000000
f 85/85/85 86/86/86 87/87/87
f 88/88/88 89/89/89 90/90/90
f 91/91/91 92/92/92 93/93/93
f 94/94/94 95/95/95 96/96/96
f 97/97/97 98/98/98 99/99/99
f 100/100/100 101/101/101 102/102/102
f 103/103/103 104/104/104 105/105/105
f 106/106/106 107/107/107 108/108/108
f 109/109/109 110/110/110 111/111/111
f 112/112/112 113/113/113 114/114/114
f 115/115/115 116/116/116 117/117/117
f 118/118/118 119/119/119 120/120/120

o rtread
v 1.400000 1.294000 -2.730000
v 0.875000 1.294000 -2.730000
v 1.400000 1.410000 2.970000
v 1.400000 1.410000 2.970000
v 0.875000 1.294000 -2.730000
v 0.875000 1.410000 2.970000
v 1.400000 1.410000 2.970000
v 0.875000 1.410000 2.970000
v 1.400000 0.000000 2.229000
v 1.400000 0.000000 2.229000
v 0.875000 1.410000 2.970000
v 0.875000 0.000000 2.229000
v 1.400000 0.000000 2.229000
v 0.875000 0.000000 2.229000
v 1.400000 0.000000 -2.597000
v 1.400000 0.000000 -2.597000
v 0.875000 0.000000 2.229000
v 0.875000 0.000000 -2.597000
v 1.400000 0.000000 -2.597000
v 0.875000 0.000000 -2.597000
v 1.400000 1.294000 -2.730000
v 1.400000 1.294000 -2.730000
v 0.875000 0.000000 -2.597000
v 0.875000 1.294000 -2.730000
v 1.400000 0.000000 2.229000
v 1.400000 0.000000 -2.597000
v 1.400000 1.294000 -2.730000
v 1.400000 0.000000 2.229000
v 1.400000 1.294000 -2.730000
v 1.400000 1.410000 2.970000
v 0.875000 0.000000 2.229000
v 0.875000 1.410000 2.970000
v 0.875000 1.294000 -2.730000
v 0.875000 0.000000 2.229000
v 0.875000 1.294000 -2.730000
v 0.875000 0.000000 -2.597000
vt -0.072000 0.099000
vt 0.032000 0.022000
vt 0.419000 0.757000
vt 0.419000 0.757000
vt 0.032000 0.022000
vt 0.511000 0.690000
vt 0.419000 0.757000
vt 0.511000 0.690000
vt -0.026000 0.803000
vt -0.026000 0.803000
vt 0.511000 0.690000
vt 0.690000 0.279000
vt -0.026000 0.803000
vt 0.690000 0.279000
vt -0.383000 0.314000
vt -0.383000 0.314000
vt 0.690000 0.279000
vt 0.332000 -0.209000
vt -0.383000 0.314000
vt 0.332000 -0.209000
vt -0.072000 0.099000
vt -0.072000 0.099000
vt 0.332000 -0.209000
vt 0.032000 0.022000
vt -0.026000 0.803000
vt -0.383000 0.314000
vt -0.072000 0.099000
vt -0.026000 0.803000
vt -0.072000 0.099000
vt 0.419000 0.757000
vt 0.690000 0.279000
vt 0.511000 0.690000
vt 0.032000 0.022000
vt 0.690000 0.279000
vt 0.032000 0.022000
vt 0.332000 -0.209000
vn 0.000000 0.999793 -0.020362
vn 0.000000 0.999793 -0.020362
vn 0.000000 0.999793 -0.020362
vn 0.000000 0.999793 -0.020362
vn 0.000000 0.999793 -0.020362
vn 0.000000 0.999793 -0.020362
vn 0.000000 0.999793 -0.020362
vn 0.000000 0.999793 -0.020362
vn 0.000000 -0.465341 0.885132
vn 0.000000 -0.465341 0.885132
vn 0.000000 0.999793 -0.020362
vn 0.000000 -0.465341 0.885132
vn 0.000000 -0.465341 0.885132
vn 0.000000 -0.465341 0.885132
vn 0.000000 -1.000000 0.000000
vn 0.000000 -1.000000 0.000000
vn 0.000000 -0.465341 0.885132
vn 0.000000 -1.000000 0.000000
vn 0.000000 -1.000000 0.000000
vn 0.000000 -1.000000 0.000000
vn 0.000000 -0.102699 -0.994712
vn 0.000000 -0.102699 -0.994712
vn 0.000000 -1.000000 0.000000
vn 0.000000 -0.102699 -0.994712
vn 1.000000 0.000000 0.000000
vn 1.000000 0.000000 0.000000
vn 1.000000 0.000000 0.000000
vn 1.000000 0.000000 0.000000
vn 1.000000 0.000000 0.000000
vn 1.000000 0.000000 0.000000
vn -1.000000 0.000000 0.000000
vn -1.000000 0.000000 0.000000
vn -1.000000 0.000000 0.000000
vn -1.000000 0.000000 0.000000
vn -1.000000 0.000000 0.000000
vn -1.000000 0.000000 0.000000
f 121/121/121 122/122/122 123/123/123
f 124/124/124 125/125/125 126/126/126
f 127/127/127 128/128/128 129/129/129
f 130/130/130 131/131/131 132/132/132
f 133/133/133 134/134/134 135/135/135
f 136/136/136 137/137/137 138/138/138
f 139/139/139 140/140/140 141/141/141
f 142/142/142 143/143/143 144/144/144
f 145/145/145 146/146/146 147/147/147
f 148/148/148 149/149/149 150/150/150
f 151/151/151 152/152/152 153/153/153
f 154/154/154 155/155/155 156/156/156

# Navigation lights. One `p` vertex each, read by the renderer for its
# position only; see docs/tank-model-format.md.

o lightRear
v 0.000000 1.253739 2.227500
p -1

o lightPort
v -0.770000 1.572506 -0.100000
p -1

o lightStarboard
v 0.770000 1.553139 -0.100000
p -1

