# BZFlag medium tank, extracted from the BZFlag source tree by
# scripts/extract-bzflag-lod-tanks.mjs. The geometry is upstream's own,
# from src/geometry/models/tank (BZFlag, LGPL 2.1).

o body
v 0.877000 0.408000 -2.610000
v -0.877000 0.408000 -2.610000
v 0.877000 0.990000 -2.570000
v 0.877000 0.990000 -2.570000
v -0.877000 0.408000 -2.610000
v -0.877000 0.990000 -2.570000
v 0.877000 0.990000 -2.570000
v -0.877000 0.990000 -2.570000
v 0.877000 1.130000 -1.760000
v 0.877000 1.130000 -1.760000
v -0.877000 0.990000 -2.570000
v -0.877000 1.130000 -1.760000
v 0.877000 1.130000 -1.760000
v -0.877000 1.130000 -1.760000
v 0.877000 1.240000 2.900000
v 0.877000 1.240000 2.900000
v -0.877000 1.130000 -1.760000
v -0.877000 1.240000 2.900000
v 0.877000 1.240000 2.900000
v -0.877000 1.240000 2.900000
v 0.877000 0.528000 2.740000
v 0.877000 0.528000 2.740000
v -0.877000 1.240000 2.900000
v -0.877000 0.528000 2.740000
v 0.877000 0.528000 2.740000
v -0.877000 0.528000 2.740000
v 0.877000 0.200000 1.620000
v 0.877000 0.200000 1.620000
v -0.877000 0.528000 2.740000
v -0.877000 0.200000 1.620000
v 0.877000 0.200000 1.620000
v -0.877000 0.200000 1.620000
v 0.877000 0.200000 -1.810000
v 0.877000 0.200000 -1.810000
v -0.877000 0.200000 1.620000
v -0.877000 0.200000 -1.810000
v 0.877000 0.200000 -1.810000
v -0.877000 0.200000 -1.810000
v 0.877000 0.408000 -2.610000
v 0.877000 0.408000 -2.610000
v -0.877000 0.200000 -1.810000
v -0.877000 0.408000 -2.610000
v 0.877000 0.670857 -0.212857
v 0.877000 0.408000 -2.610000
v 0.877000 0.990000 -2.570000
v 0.877000 0.670857 -0.212857
v 0.877000 0.990000 -2.570000
v 0.877000 1.130000 -1.760000
v 0.877000 0.670857 -0.212857
v 0.877000 1.130000 -1.760000
v 0.877000 1.240000 2.900000
v 0.877000 0.670857 -0.212857
v 0.877000 1.240000 2.900000
v 0.877000 0.528000 2.740000
v 0.877000 0.670857 -0.212857
v 0.877000 0.528000 2.740000
v 0.877000 0.200000 1.620000
v 0.877000 0.670857 -0.212857
v 0.877000 0.200000 1.620000
v 0.877000 0.200000 -1.810000
v 0.877000 0.670857 -0.212857
v 0.877000 0.200000 -1.810000
v 0.877000 0.408000 -2.610000
v -0.877000 0.670857 -0.212857
v -0.877000 0.990000 -2.570000
v -0.877000 0.408000 -2.610000
v -0.877000 0.670857 -0.212857
v -0.877000 1.130000 -1.760000
v -0.877000 0.990000 -2.570000
v -0.877000 0.670857 -0.212857
v -0.877000 1.240000 2.900000
v -0.877000 1.130000 -1.760000
v -0.877000 0.670857 -0.212857
v -0.877000 0.528000 2.740000
v -0.877000 1.240000 2.900000
v -0.877000 0.670857 -0.212857
v -0.877000 0.200000 1.620000
v -0.877000 0.528000 2.740000
v -0.877000 0.670857 -0.212857
v -0.877000 0.200000 -1.810000
v -0.877000 0.200000 1.620000
v -0.877000 0.670857 -0.212857
v -0.877000 0.408000 -2.610000
v -0.877000 0.200000 -1.810000
vt 1.240000 2.230000
vt 0.700000 1.970000
vt 1.240000 2.210000
vt 1.240000 2.210000
vt 0.700000 1.970000
vt 0.705000 1.960000
vt 1.240000 2.210000
vt 0.705000 1.960000
vt 1.360000 1.970000
vt 1.360000 1.970000
vt 0.705000 1.960000
vt 0.822000 1.710000
vt 1.360000 1.970000
vt 0.822000 1.710000
vt 2.030000 0.541000
vt 2.030000 0.541000
vt 0.822000 1.710000
vt 1.490000 0.289000
vt 2.030000 0.541000
vt 1.490000 0.289000
vt 2.000000 0.590000
vt 2.000000 0.590000
vt 1.490000 0.289000
vt 1.470000 0.338000
vt 2.000000 0.590000
vt 1.470000 0.338000
vt 1.840000 0.932000
vt 1.840000 0.932000
vt 1.470000 0.338000
vt 1.310000 0.680000
vt 1.840000 0.932000
vt 1.310000 0.680000
vt 1.350000 1.980000
vt 1.350000 1.980000
vt 1.310000 0.680000
vt 0.815000 1.730000
vt 1.350000 1.980000
vt 0.815000 1.730000
vt 1.240000 2.230000
vt 1.240000 2.230000
vt 0.815000 1.730000
vt 0.700000 1.970000
vt -0.069433 0.218831
vt -0.851373 0.133088
vt -0.838325 0.322935
vt -0.069433 0.218831
vt -0.838325 0.322935
vt -0.574106 0.368602
vt -0.069433 0.218831
vt -0.574106 0.368602
vt 0.945970 0.404484
vt -0.069433 0.218831
vt 0.945970 0.404484
vt 0.893778 0.172232
vt -0.069433 0.218831
vt 0.893778 0.172232
vt 0.528438 0.065239
vt -0.069433 0.218831
vt 0.528438 0.065239
vt -0.590416 0.065239
vt -0.069433 0.218831
vt -0.590416 0.065239
vt -0.851373 0.133088
vt -0.069433 0.218831
vt -0.838325 0.322935
vt -0.851373 0.133088
vt -0.069433 0.218831
vt -0.574106 0.368602
vt -0.838325 0.322935
vt -0.069433 0.218831
vt 0.945970 0.404484
vt -0.574106 0.368602
vt -0.069433 0.218831
vt 0.893778 0.172232
vt 0.945970 0.404484
vt -0.069433 0.218831
vt 0.528438 0.065239
vt 0.893778 0.172232
vt -0.069433 0.218831
vt -0.590416 0.065239
vt 0.528438 0.065239
vt -0.069433 0.218831
vt -0.851373 0.133088
vt -0.590416 0.065239
vn 0.000000 0.068567 -0.997647
vn 0.000000 0.068567 -0.997647
vn 0.000000 0.068567 -0.997647
vn 0.000000 0.068567 -0.997647
vn 0.000000 0.068567 -0.997647
vn 0.000000 0.068567 -0.997647
vn 0.000000 0.068567 -0.997647
vn 0.000000 0.068567 -0.997647
vn 0.000000 0.985390 -0.170314
vn 0.000000 0.985390 -0.170314
vn 0.000000 0.068567 -0.997647
vn 0.000000 0.985390 -0.170314
vn 0.000000 0.985390 -0.170314
vn 0.000000 0.985390 -0.170314
vn 0.000000 0.999722 -0.023599
vn 0.000000 0.999722 -0.023599
vn 0.000000 0.985390 -0.170314
vn 0.000000 0.999722 -0.023599
vn 0.000000 0.999722 -0.023599
vn 0.000000 0.999722 -0.023599
vn 0.000000 -0.219251 0.975668
vn 0.000000 -0.219251 0.975668
vn 0.000000 0.999722 -0.023599
vn 0.000000 -0.219251 0.975668
vn 0.000000 -0.219251 0.975668
vn 0.000000 -0.219251 0.975668
vn 0.000000 -0.904526 0.426419
vn 0.000000 -0.904526 0.426419
vn 0.000000 -0.219251 0.975668
vn 0.000000 -0.904526 0.426419
vn 0.000000 -0.904526 0.426419
vn 0.000000 -0.904526 0.426419
vn 0.000000 -1.000000 0.000000
vn 0.000000 -1.000000 0.000000
vn 0.000000 -0.904526 0.426419
vn 0.000000 -1.000000 0.000000
vn 0.000000 -1.000000 0.000000
vn 0.000000 -1.000000 0.000000
vn 0.000000 -0.890835 -0.454326
vn 0.000000 -0.890835 -0.454326
vn 0.000000 -1.000000 0.000000
vn 0.000000 -0.890835 -0.454326
vn 1.000000 -0.000000 0.000000
vn 1.000000 -0.000000 0.000000
vn 1.000000 -0.000000 0.000000
vn 1.000000 -0.000000 0.000000
vn 1.000000 -0.000000 0.000000
vn 1.000000 -0.000000 0.000000
vn 1.000000 -0.000000 0.000000
vn 1.000000 -0.000000 0.000000
vn 1.000000 -0.000000 0.000000
vn 1.000000 -0.000000 0.000000
vn 1.000000 -0.000000 0.000000
vn 1.000000 -0.000000 0.000000
vn 1.000000 -0.000000 0.000000
vn 1.000000 -0.000000 0.000000
vn 1.000000 -0.000000 0.000000
vn 1.000000 -0.000000 0.000000
vn 1.000000 -0.000000 0.000000
vn 1.000000 -0.000000 0.000000
vn 1.000000 -0.000000 0.000000
vn 1.000000 -0.000000 0.000000
vn 1.000000 -0.000000 0.000000
vn -1.000000 -0.000000 0.000000
vn -1.000000 -0.000000 0.000000
vn -1.000000 -0.000000 0.000000
vn -1.000000 -0.000000 0.000000
vn -1.000000 -0.000000 0.000000
vn -1.000000 -0.000000 0.000000
vn -1.000000 -0.000000 0.000000
vn -1.000000 -0.000000 0.000000
vn -1.000000 -0.000000 0.000000
vn -1.000000 -0.000000 0.000000
vn -1.000000 -0.000000 0.000000
vn -1.000000 -0.000000 0.000000
vn -1.000000 -0.000000 0.000000
vn -1.000000 -0.000000 0.000000
vn -1.000000 -0.000000 0.000000
vn -1.000000 -0.000000 0.000000
vn -1.000000 -0.000000 0.000000
vn -1.000000 -0.000000 0.000000
vn -1.000000 -0.000000 0.000000
vn -1.000000 -0.000000 0.000000
vn -1.000000 -0.000000 0.000000
f 1/1/1 2/2/2 3/3/3
f 4/4/4 5/5/5 6/6/6
f 7/7/7 8/8/8 9/9/9
f 10/10/10 11/11/11 12/12/12
f 13/13/13 14/14/14 15/15/15
f 16/16/16 17/17/17 18/18/18
f 19/19/19 20/20/20 21/21/21
f 22/22/22 23/23/23 24/24/24
f 25/25/25 26/26/26 27/27/27
f 28/28/28 29/29/29 30/30/30
f 31/31/31 32/32/32 33/33/33
f 34/34/34 35/35/35 36/36/36
f 37/37/37 38/38/38 39/39/39
f 40/40/40 41/41/41 42/42/42
f 43/43/43 44/44/44 45/45/45
f 46/46/46 47/47/47 48/48/48
f 49/49/49 50/50/50 51/51/51
f 52/52/52 53/53/53 54/54/54
f 55/55/55 56/56/56 57/57/57
f 58/58/58 59/59/59 60/60/60
f 61/61/61 62/62/62 63/63/63
f 64/64/64 65/65/65 66/66/66
f 67/67/67 68/68/68 69/69/69
f 70/70/70 71/71/71 72/72/72
f 73/73/73 74/74/74 75/75/75
f 76/76/76 77/77/77 78/78/78
f 79/79/79 80/80/80 81/81/81
f 82/82/82 83/83/83 84/84/84

o turret
v -1.110000 1.940000 -0.007000
v -1.080000 1.040000 0.456000
v -0.764000 2.050000 1.370000
v -0.764000 2.050000 1.370000
v -1.080000 1.040000 0.456000
v 1.060000 1.040000 0.456000
v -0.764000 2.050000 1.370000
v 1.060000 1.040000 0.456000
v 0.765000 2.050000 1.370000
v 0.765000 2.050000 1.370000
v 1.060000 1.040000 0.456000
v 1.110000 1.940000 -0.001000
v 0.765000 2.050000 1.370000
v 1.110000 1.940000 -0.001000
v -0.764000 2.050000 1.370000
v -0.764000 2.050000 1.370000
v 1.110000 1.940000 -0.001000
v -1.110000 1.940000 -0.007000
v 0.516000 1.040000 -1.480000
v -0.516000 1.040000 -1.480000
v 0.434000 1.790000 -1.580000
v 0.434000 1.790000 -1.580000
v -0.516000 1.040000 -1.480000
v -0.435000 1.790000 -1.580000
v 0.434000 1.790000 -1.580000
v -0.435000 1.790000 -1.580000
v 1.110000 1.940000 -0.001000
v 1.110000 1.940000 -0.001000
v -0.435000 1.790000 -1.580000
v -1.110000 1.940000 -0.007000
v 1.100000 1.030000 -0.014000
v 0.516000 1.040000 -1.480000
v 0.434000 1.790000 -1.580000
v 1.100000 1.030000 -0.014000
v 0.434000 1.790000 -1.580000
v 1.110000 1.940000 -0.001000
v 1.100000 1.030000 -0.014000
v 1.110000 1.940000 -0.001000
v 1.060000 1.040000 0.456000
v -1.100000 1.030000 -0.014000
v -1.080000 1.040000 0.456000
v -1.110000 1.940000 -0.007000
v -1.100000 1.030000 -0.014000
v -1.110000 1.940000 -0.007000
v -0.435000 1.790000 -1.580000
v -1.100000 1.030000 -0.014000
v -0.435000 1.790000 -1.580000
v -0.516000 1.040000 -1.480000
v -0.003333 1.036667 -0.346000
v 1.060000 1.040000 0.456000
v -1.080000 1.040000 0.456000
v -0.003333 1.036667 -0.346000
v 1.100000 1.030000 -0.014000
v 1.060000 1.040000 0.456000
v -0.003333 1.036667 -0.346000
v 0.516000 1.040000 -1.480000
v 1.100000 1.030000 -0.014000
v -0.003333 1.036667 -0.346000
v -0.516000 1.040000 -1.480000
v 0.516000 1.040000 -1.480000
v -0.003333 1.036667 -0.346000
v -1.100000 1.030000 -0.014000
v -0.516000 1.040000 -1.480000
v -0.003333 1.036667 -0.346000
v -1.080000 1.040000 0.456000
v -1.100000 1.030000 -0.014000
vt 0.812000 -0.134000
vt 0.996000 -0.132000
vt 1.080000 0.169000
vt 1.080000 0.169000
vt 0.996000 -0.132000
vt 0.559000 0.339000
vt 1.080000 0.169000
vt 0.559000 0.339000
vt 0.866000 0.402000
vt 0.866000 0.402000
vt 0.559000 0.339000
vt 0.546000 0.156000
vt 0.866000 0.402000
vt 0.546000 0.156000
vt 1.080000 0.169000
vt 1.080000 0.169000
vt 0.546000 0.156000
vt 0.812000 -0.134000
vt 0.107000 -0.009000
vt 0.617000 -0.559000
vt 0.224000 -0.178000
vt 0.224000 -0.178000
vt 0.617000 -0.559000
vt 0.457000 -0.429000
vt 0.224000 -0.178000
vt 0.457000 -0.429000
vt 0.546000 0.156000
vt 0.546000 0.156000
vt 0.457000 -0.429000
vt 0.812000 -0.134000
vt 0.458000 0.244000
vt 0.107000 -0.009000
vt 0.224000 -0.178000
vt 0.458000 0.244000
vt 0.224000 -0.178000
vt 0.546000 0.156000
vt 0.458000 0.244000
vt 0.546000 0.156000
vt 0.559000 0.339000
vt 0.895000 -0.226000
vt 0.996000 -0.132000
vt 0.812000 -0.134000
vt 0.895000 -0.226000
vt 0.812000 -0.134000
vt 0.457000 -0.429000
vt 0.895000 -0.226000
vt 0.457000 -0.429000
vt 0.617000 -0.559000
vt -0.000861 -0.089320
vt 0.273640 0.117717
vt -0.278803 0.117717
vt -0.000861 -0.089320
vt 0.283966 -0.003614
vt 0.273640 0.117717
vt -0.000861 -0.089320
vt 0.133206 -0.382063
vt 0.283966 -0.003614
vt -0.000861 -0.089320
vt -0.133206 -0.382063
vt 0.133206 -0.382063
vt -0.000861 -0.089320
vt -0.283966 -0.003614
vt -0.133206 -0.382063
vt -0.000861 -0.089320
vt -0.278803 0.117717
vt -0.283966 -0.003614
vn -0.967658 0.089216 0.235964
vn -0.967658 0.089216 0.235964
vn -0.967658 0.089216 0.235964
vn -0.967658 0.089216 0.235964
vn -0.967658 0.089216 0.235964
vn 0.000000 -0.670990 0.741466
vn -0.967658 0.089216 0.235964
vn 0.000000 -0.670990 0.741466
vn 0.000000 -0.670990 0.741466
vn 0.000000 -0.670990 0.741466
vn 0.000000 -0.670990 0.741466
vn 0.968849 0.067303 0.238331
vn 0.000000 -0.670990 0.741466
vn 0.968849 0.067303 0.238331
vn 0.000000 0.996799 -0.079953
vn 0.000000 0.996799 -0.079953
vn 0.968849 0.067303 0.238331
vn 0.000000 0.996799 -0.079953
vn 0.000000 -0.132164 -0.991228
vn 0.000000 -0.132164 -0.991228
vn 0.000000 -0.132164 -0.991228
vn 0.000000 -0.132164 -0.991228
vn 0.000000 -0.132164 -0.991228
vn 0.000000 -0.132164 -0.991228
vn 0.000000 -0.132164 -0.991228
vn 0.000000 -0.132164 -0.991228
vn 0.000000 0.995516 -0.094595
vn 0.000000 0.995516 -0.094595
vn 0.000000 -0.132164 -0.991228
vn 0.000000 0.995516 -0.094595
vn 0.988713 0.013310 -0.149229
vn 0.927898 0.052229 -0.369158
vn 0.924109 0.023687 -0.381395
vn 0.988713 0.013310 -0.149229
vn 0.924109 0.023687 -0.381395
vn 0.996296 -0.012079 0.085139
vn 0.988713 0.013310 -0.149229
vn 0.996296 -0.012079 0.085139
vn 0.996296 -0.012079 0.085139
vn -0.974751 0.020603 -0.222340
vn -0.999020 -0.011269 0.042797
vn -0.983622 -0.009585 -0.179990
vn -0.974751 0.020603 -0.222340
vn -0.983622 -0.009585 -0.179990
vn -0.927954 0.050994 -0.369189
vn -0.974751 0.020603 -0.222340
vn -0.927954 0.050994 -0.369189
vn -0.927954 0.050994 -0.369189
vn 0.000000 -0.999999 0.001635
vn 0.000000 -0.999999 0.001635
vn 0.000000 -0.999999 0.001635
vn 0.000000 -0.999999 0.001635
vn 0.000000 -0.999999 0.001635
vn 0.000000 -0.999999 0.001635
vn 0.000000 -0.999999 0.001635
vn 0.000000 -0.999999 0.001635
vn 0.000000 -0.999999 0.001635
vn 0.000000 -0.999999 0.001635
vn 0.000000 -0.999999 0.001635
vn 0.000000 -0.999999 0.001635
vn 0.000000 -0.999999 0.001635
vn 0.000000 -0.999999 0.001635
vn 0.000000 -0.999999 0.001635
vn 0.000000 -0.999999 0.001635
vn 0.000000 -0.999999 0.001635
vn 0.000000 -0.999999 0.001635
f 85/85/85 86/86/86 87/87/87
f 88/88/88 89/89/89 90/90/90
f 91/91/91 92/92/92 93/93/93
f 94/94/94 95/95/95 96/96/96
f 97/97/97 98/98/98 99/99/99
f 100/100/100 101/101/101 102/102/102
f 103/103/103 104/104/104 105/105/105
f 106/106/106 107/107/107 108/108/108
f 109/109/109 110/110/110 111/111/111
f 112/112/112 113/113/113 114/114/114
f 115/115/115 116/116/116 117/117/117
f 118/118/118 119/119/119 120/120/120
f 121/121/121 122/122/122 123/123/123
f 124/124/124 125/125/125 126/126/126
f 127/127/127 128/128/128 129/129/129
f 130/130/130 131/131/131 132/132/132
f 133/133/133 134/134/134 135/135/135
f 136/136/136 137/137/137 138/138/138
f 139/139/139 140/140/140 141/141/141
f 142/142/142 143/143/143 144/144/144
f 145/145/145 146/146/146 147/147/147
f 148/148/148 149/149/149 150/150/150

o barrel
v 0.180000 1.530000 -1.570000
v 0.126000 1.530000 -4.940000
v 0.000000 1.710000 -1.570000
v 0.000000 1.710000 -1.570000
v 0.126000 1.530000 -4.940000
v 0.000000 1.660000 -4.940000
v 0.000000 1.710000 -1.570000
v 0.000000 1.660000 -4.940000
v -0.180000 1.530000 -1.570000
v -0.180000 1.530000 -1.570000
v 0.000000 1.660000 -4.940000
v -0.126000 1.530000 -4.940000
v -0.180000 1.530000 -1.570000
v -0.126000 1.530000 -4.940000
v 0.000000 1.350000 -1.570000
v 0.000000 1.350000 -1.570000
v -0.126000 1.530000 -4.940000
v 0.000000 1.410000 -4.940000
v 0.000000 1.350000 -1.570000
v 0.000000 1.410000 -4.940000
v 0.180000 1.530000 -1.570000
v 0.180000 1.530000 -1.570000
v 0.000000 1.410000 -4.940000
v 0.126000 1.530000 -4.940000
v 0.000000 1.410000 -4.940000
v -0.126000 1.530000 -4.940000
v 0.000000 1.660000 -4.940000
v 0.000000 1.410000 -4.940000
v 0.000000 1.660000 -4.940000
v 0.126000 1.530000 -4.940000
v 0.000000 1.530000 -1.570000
v 0.180000 1.530000 -1.570000
v 0.000000 1.710000 -1.570000
v 0.000000 1.530000 -1.570000
v 0.000000 1.350000 -1.570000
v 0.180000 1.530000 -1.570000
v 0.000000 1.530000 -1.570000
v -0.180000 1.530000 -1.570000
v 0.000000 1.350000 -1.570000
v 0.000000 1.530000 -1.570000
v 0.000000 1.710000 -1.570000
v -0.180000 1.530000 -1.570000
vn 1.000000 0.000000 0.000000
vn 1.000000 0.000000 0.000000
vn 0.000000 1.000000 0.000000
vn 0.000000 1.000000 0.000000
vn 1.000000 0.000000 0.000000
vn 0.000000 1.000000 0.000000
vn 0.000000 1.000000 0.000000
vn 0.000000 1.000000 0.000000
vn -1.000000 0.000000 0.000000
vn -1.000000 0.000000 0.000000
vn 0.000000 1.000000 0.000000
vn -1.000000 0.000000 0.000000
vn -1.000000 0.000000 0.000000
vn -1.000000 0.000000 0.000000
vn 0.000000 -1.000000 0.000000
vn 0.000000 -1.000000 0.000000
vn -1.000000 0.000000 0.000000
vn 0.000000 -1.000000 0.000000
vn 0.000000 -1.000000 0.000000
vn 0.000000 -1.000000 0.000000
vn 1.000000 0.000000 0.000000
vn 1.000000 0.000000 0.000000
vn 0.000000 -1.000000 0.000000
vn 1.000000 0.000000 0.000000
vn 0.000000 0.000000 -1.000000
vn 0.000000 0.000000 -1.000000
vn 0.000000 0.000000 -1.000000
vn 0.000000 0.000000 -1.000000
vn 0.000000 0.000000 -1.000000
vn 0.000000 0.000000 -1.000000
vn 0.000000 0.000000 1.000000
vn 0.000000 0.000000 1.000000
vn 0.000000 0.000000 1.000000
vn 0.000000 0.000000 1.000000
vn 0.000000 0.000000 1.000000
vn 0.000000 0.000000 1.000000
vn 0.000000 0.000000 1.000000
vn 0.000000 0.000000 1.000000
vn 0.000000 0.000000 1.000000
vn 0.000000 0.000000 1.000000
vn 0.000000 0.000000 1.000000
vn 0.000000 0.000000 1.000000
f 151//151 152//152 153//153
f 154//154 155//155 156//156
f 157//157 158//158 159//159
f 160//160 161//161 162//162
f 163//163 164//164 165//165
f 166//166 167//167 168//168
f 169//169 170//170 171//171
f 172//172 173//173 174//174
f 175//175 176//176 177//177
f 178//178 179//179 180//180
f 181//181 182//182 183//183
f 184//184 185//185 186//186
f 187//187 188//188 189//189
f 190//190 191//191 192//192

o ltread
v -0.877000 0.408000 -2.790000
v -1.400000 0.408000 -2.790000
v -0.877000 1.080000 -2.750000
v -0.877000 1.080000 -2.750000
v -1.400000 0.408000 -2.790000
v -1.400000 1.080000 -2.750000
v -0.877000 1.080000 -2.750000
v -1.400000 1.080000 -2.750000
v -0.877000 1.310000 -1.940000
v -0.877000 1.310000 -1.940000
v -1.400000 1.080000 -2.750000
v -1.400000 1.310000 -1.940000
v -0.877000 1.310000 -1.940000
v -1.400000 1.310000 -1.940000
v -0.877000 1.410000 2.970000
v -0.877000 1.410000 2.970000
v -1.400000 1.310000 -1.940000
v -1.400000 1.410000 2.970000
v -0.877000 1.410000 2.970000
v -1.400000 1.410000 2.970000
v -0.877000 0.528000 2.740000
v -0.877000 0.528000 2.740000
v -1.400000 1.410000 2.970000
v -1.400000 0.528000 2.740000
v -0.877000 0.528000 2.740000
v -1.400000 0.528000 2.740000
v -0.877000 0.000000 1.620000
v -0.877000 0.000000 1.620000
v -1.400000 0.528000 2.740000
v -1.400000 0.000000 1.620000
v -0.877000 0.000000 1.620000
v -1.400000 0.000000 1.620000
v -0.877000 0.000000 -1.990000
v -0.877000 0.000000 -1.990000
v -1.400000 0.000000 1.620000
v -1.400000 0.000000 -1.990000
v -0.877000 0.000000 -1.990000
v -1.400000 0.000000 -1.990000
v -0.877000 0.408000 -2.790000
v -0.877000 0.408000 -2.790000
v -1.400000 0.000000 -1.990000
v -1.400000 0.408000 -2.790000
v -0.877000 1.310000 -1.940000
v -0.877000 1.410000 2.970000
v -0.877000 0.528000 2.740000
v -0.877000 1.310000 -1.940000
v -0.877000 0.528000 2.740000
v -0.877000 0.000000 1.620000
v -0.877000 1.310000 -1.940000
v -0.877000 0.000000 1.620000
v -0.877000 0.000000 -1.990000
v -0.877000 1.310000 -1.940000
v -0.877000 0.000000 -1.990000
v -0.877000 0.408000 -2.790000
v -0.877000 1.310000 -1.940000
v -0.877000 0.408000 -2.790000
v -0.877000 1.080000 -2.750000
v -1.400000 1.310000 -1.940000
v -1.400000 1.080000 -2.750000
v -1.400000 0.408000 -2.790000
v -1.400000 1.310000 -1.940000
v -1.400000 0.408000 -2.790000
v -1.400000 0.000000 -1.990000
v -1.400000 1.310000 -1.940000
v -1.400000 0.000000 -1.990000
v -1.400000 0.000000 1.620000
v -1.400000 1.310000 -1.940000
v -1.400000 0.000000 1.620000
v -1.400000 0.528000 2.740000
v -1.400000 1.310000 -1.940000
v -1.400000 0.528000 2.740000
v -1.400000 1.410000 2.970000
vt 1.000000 1.964610
vt 0.000000 1.964610
vt 1.000000 1.758805
vt 1.000000 1.758805
vt 0.000000 1.964610
vt 0.000000 1.758805
vt 1.000000 1.758805
vt 0.000000 1.758805
vt 1.000000 1.501384
vt 1.000000 1.501384
vt 0.000000 1.758805
vt 0.000000 1.501384
vt 1.000000 1.501384
vt 0.000000 1.501384
vt 1.000000 0.000000
vt 1.000000 0.000000
vt 0.000000 1.501384
vt 0.000000 0.000000
vt 1.000000 0.000000
vt 0.000000 0.000000
vt 1.000000 3.721340
vt 1.000000 3.721340
vt 0.000000 0.000000
vt 0.000000 3.721340
vt 1.000000 3.721340
vt 0.000000 3.721340
vt 1.000000 3.342795
vt 1.000000 3.342795
vt 0.000000 3.721340
vt 0.000000 3.342795
vt 1.000000 3.342795
vt 0.000000 3.342795
vt 1.000000 2.239155
vt 1.000000 2.239155
vt 0.000000 3.342795
vt 0.000000 2.239155
vt 1.000000 2.239155
vt 0.000000 2.239155
vt 1.000000 1.964610
vt 1.000000 1.964610
vt 0.000000 2.239155
vt 0.000000 1.964610
vt 0.392216 -0.580838
vt 0.422156 0.889222
vt 0.158084 0.820359
vt 0.392216 -0.580838
vt 0.158084 0.820359
vt 0.000000 0.485030
vt 0.392216 -0.580838
vt 0.000000 0.485030
vt 0.000000 -0.595808
vt 0.392216 -0.580838
vt 0.000000 -0.595808
vt 0.122156 -0.835329
vt 0.392216 -0.580838
vt 0.122156 -0.835329
vt 0.323353 -0.823353
vt 0.392216 -0.580838
vt 0.323353 -0.823353
vt 0.122156 -0.835329
vt 0.392216 -0.580838
vt 0.122156 -0.835329
vt 0.000000 -0.595808
vt 0.392216 -0.580838
vt 0.000000 -0.595808
vt 0.000000 0.485030
vt 0.392216 -0.580838
vt 0.000000 0.485030
vt 0.158084 0.820359
vt 0.392216 -0.580838
vt 0.158084 0.820359
vt 0.422156 0.889222
vn 0.000000 0.059419 -0.998233
vn 0.000000 0.059419 -0.998233
vn 0.000000 0.059419 -0.998233
vn 0.000000 0.059419 -0.998233
vn 0.000000 0.059419 -0.998233
vn 0.000000 0.059419 -0.998233
vn 0.000000 0.059419 -0.998233
vn 0.000000 0.059419 -0.998233
vn 0.000000 0.961971 -0.273152
vn 0.000000 0.961971 -0.273152
vn 0.000000 0.059419 -0.998233
vn 0.000000 0.961971 -0.273152
vn 0.000000 0.961971 -0.273152
vn 0.000000 0.961971 -0.273152
vn 0.000000 0.999793 -0.020362
vn 0.000000 0.999793 -0.020362
vn 0.000000 0.961971 -0.273152
vn 0.000000 0.999793 -0.020362
vn 0.000000 0.999793 -0.020362
vn 0.000000 0.999793 -0.020362
vn 0.000000 -0.252333 0.967641
vn 0.000000 -0.252333 0.967641
vn 0.000000 0.999793 -0.020362
vn 0.000000 -0.252333 0.967641
vn 0.000000 -0.252333 0.967641
vn 0.000000 -0.252333 0.967641
vn 0.000000 -0.904526 0.426419
vn 0.000000 -0.904526 0.426419
vn 0.000000 -0.252333 0.967641
vn 0.000000 -0.904526 0.426419
vn 0.000000 -0.904526 0.426419
vn 0.000000 -0.904526 0.426419
vn 0.000000 -1.000000 0.000000
vn 0.000000 -1.000000 0.000000
vn 0.000000 -0.904526 0.426419
vn 0.000000 -1.000000 0.000000
vn 0.000000 -1.000000 0.000000
vn 0.000000 -1.000000 0.000000
vn 0.000000 -0.890835 -0.454326
vn 0.000000 -0.890835 -0.454326
vn 0.000000 -1.000000 0.000000
vn 0.000000 -0.890835 -0.454326
vn 1.000000 0.000000 0.000000
vn 1.000000 0.000000 0.000000
vn 1.000000 0.000000 0.000000
vn 1.000000 0.000000 0.000000
vn 1.000000 0.000000 0.000000
vn 1.000000 0.000000 0.000000
vn 1.000000 0.000000 0.000000
vn 1.000000 0.000000 0.000000
vn 1.000000 0.000000 0.000000
vn 1.000000 0.000000 0.000000
vn 1.000000 0.000000 0.000000
vn 1.000000 0.000000 0.000000
vn 1.000000 0.000000 0.000000
vn 1.000000 0.000000 0.000000
vn 1.000000 0.000000 0.000000
vn -1.000000 0.000000 0.000000
vn -1.000000 0.000000 0.000000
vn -1.000000 0.000000 0.000000
vn -1.000000 0.000000 0.000000
vn -1.000000 0.000000 0.000000
vn -1.000000 0.000000 0.000000
vn -1.000000 0.000000 0.000000
vn -1.000000 0.000000 0.000000
vn -1.000000 0.000000 0.000000
vn -1.000000 0.000000 0.000000
vn -1.000000 0.000000 0.000000
vn -1.000000 0.000000 0.000000
vn -1.000000 0.000000 0.000000
vn -1.000000 0.000000 0.000000
vn -1.000000 0.000000 0.000000
usemtl tread
f 193/151/193 194/152/194 195/153/195
f 196/154/196 197/155/197 198/156/198
f 199/157/199 200/158/200 201/159/201
f 202/160/202 203/161/203 204/162/204
f 205/163/205 206/164/206 207/165/207
f 208/166/208 209/167/209 210/168/210
f 211/169/211 212/170/212 213/171/213
f 214/172/214 215/173/215 216/174/216
f 217/175/217 218/176/218 219/177/219
f 220/178/220 221/179/221 222/180/222
f 223/181/223 224/182/224 225/183/225
f 226/184/226 227/185/227 228/186/228
f 229/187/229 230/188/230 231/189/231
f 232/190/232 233/191/233 234/192/234
usemtl treadSide
f 235/193/235 236/194/236 237/195/237
f 238/196/238 239/197/239 240/198/240
f 241/199/241 242/200/242 243/201/243
f 244/202/244 245/203/245 246/204/246
f 247/205/247 248/206/248 249/207/249
f 250/208/250 251/209/251 252/210/252
f 253/211/253 254/212/254 255/213/255
f 256/214/256 257/215/257 258/216/258
f 259/217/259 260/218/260 261/219/261
f 262/220/262 263/221/263 264/222/264

o rtread
v 1.400000 0.408000 -2.790000
v 0.875000 0.408000 -2.790000
v 1.400000 1.080000 -2.750000
v 1.400000 1.080000 -2.750000
v 0.875000 0.408000 -2.790000
v 0.875000 1.080000 -2.750000
v 1.400000 1.080000 -2.750000
v 0.875000 1.080000 -2.750000
v 1.400000 1.310000 -1.940000
v 1.400000 1.310000 -1.940000
v 0.875000 1.080000 -2.750000
v 0.875000 1.310000 -1.940000
v 1.400000 1.310000 -1.940000
v 0.875000 1.310000 -1.940000
v 1.400000 1.410000 2.970000
v 1.400000 1.410000 2.970000
v 0.875000 1.310000 -1.940000
v 0.875000 1.410000 2.970000
v 1.400000 1.410000 2.970000
v 0.875000 1.410000 2.970000
v 1.400000 0.528000 2.740000
v 1.400000 0.528000 2.740000
v 0.875000 1.410000 2.970000
v 0.875000 0.528000 2.740000
v 1.400000 0.528000 2.740000
v 0.875000 0.528000 2.740000
v 1.400000 0.000000 1.620000
v 1.400000 0.000000 1.620000
v 0.875000 0.528000 2.740000
v 0.875000 0.000000 1.620000
v 1.400000 0.000000 1.620000
v 0.875000 0.000000 1.620000
v 1.400000 0.000000 -1.990000
v 1.400000 0.000000 -1.990000
v 0.875000 0.000000 1.620000
v 0.875000 0.000000 -1.990000
v 1.400000 0.000000 -1.990000
v 0.875000 0.000000 -1.990000
v 1.400000 0.408000 -2.790000
v 1.400000 0.408000 -2.790000
v 0.875000 0.000000 -1.990000
v 0.875000 0.408000 -2.790000
v 1.400000 1.310000 -1.940000
v 1.400000 1.410000 2.970000
v 1.400000 0.528000 2.740000
v 1.400000 1.310000 -1.940000
v 1.400000 0.528000 2.740000
v 1.400000 0.000000 1.620000
v 1.400000 1.310000 -1.940000
v 1.400000 0.000000 1.620000
v 1.400000 0.000000 -1.990000
v 1.400000 1.310000 -1.940000
v 1.400000 0.000000 -1.990000
v 1.400000 0.408000 -2.790000
v 1.400000 1.310000 -1.940000
v 1.400000 0.408000 -2.790000
v 1.400000 1.080000 -2.750000
v 0.875000 1.310000 -1.940000
v 0.875000 1.080000 -2.750000
v 0.875000 0.408000 -2.790000
v 0.875000 1.310000 -1.940000
v 0.875000 0.408000 -2.790000
v 0.875000 0.000000 -1.990000
v 0.875000 1.310000 -1.940000
v 0.875000 0.000000 -1.990000
v 0.875000 0.000000 1.620000
v 0.875000 1.310000 -1.940000
v 0.875000 0.000000 1.620000
v 0.875000 0.528000 2.740000
v 0.875000 1.310000 -1.940000
v 0.875000 0.528000 2.740000
v 0.875000 1.410000 2.970000
vt 1.000000 1.964610
vt 0.000000 1.964610
vt 1.000000 1.758805
vt 1.000000 1.758805
vt 0.000000 1.964610
vt 0.000000 1.758805
vt 1.000000 1.758805
vt 0.000000 1.758805
vt 1.000000 1.501384
vt 1.000000 1.501384
vt 0.000000 1.758805
vt 0.000000 1.501384
vt 1.000000 1.501384
vt 0.000000 1.501384
vt 1.000000 0.000000
vt 1.000000 0.000000
vt 0.000000 1.501384
vt 0.000000 0.000000
vt 1.000000 0.000000
vt 0.000000 0.000000
vt 1.000000 3.721340
vt 1.000000 3.721340
vt 0.000000 0.000000
vt 0.000000 3.721340
vt 1.000000 3.721340
vt 0.000000 3.721340
vt 1.000000 3.342795
vt 1.000000 3.342795
vt 0.000000 3.721340
vt 0.000000 3.342795
vt 1.000000 3.342795
vt 0.000000 3.342795
vt 1.000000 2.239155
vt 1.000000 2.239155
vt 0.000000 3.342795
vt 0.000000 2.239155
vt 1.000000 2.239155
vt 0.000000 2.239155
vt 1.000000 1.964610
vt 1.000000 1.964610
vt 0.000000 2.239155
vt 0.000000 1.964610
vt 0.392216 -0.580838
vt 0.422156 0.889222
vt 0.158084 0.820359
vt 0.392216 -0.580838
vt 0.158084 0.820359
vt 0.000000 0.485030
vt 0.392216 -0.580838
vt 0.000000 0.485030
vt 0.000000 -0.595808
vt 0.392216 -0.580838
vt 0.000000 -0.595808
vt 0.122156 -0.835329
vt 0.392216 -0.580838
vt 0.122156 -0.835329
vt 0.323353 -0.823353
vt 0.392216 -0.580838
vt 0.323353 -0.823353
vt 0.122156 -0.835329
vt 0.392216 -0.580838
vt 0.122156 -0.835329
vt 0.000000 -0.595808
vt 0.392216 -0.580838
vt 0.000000 -0.595808
vt 0.000000 0.485030
vt 0.392216 -0.580838
vt 0.000000 0.485030
vt 0.158084 0.820359
vt 0.392216 -0.580838
vt 0.158084 0.820359
vt 0.422156 0.889222
vn 0.000000 0.059419 -0.998233
vn 0.000000 0.059419 -0.998233
vn 0.000000 0.059419 -0.998233
vn 0.000000 0.059419 -0.998233
vn 0.000000 0.059419 -0.998233
vn 0.000000 0.059419 -0.998233
vn 0.000000 0.059419 -0.998233
vn 0.000000 0.059419 -0.998233
vn 0.000000 0.961971 -0.273152
vn 0.000000 0.961971 -0.273152
vn 0.000000 0.059419 -0.998233
vn 0.000000 0.961971 -0.273152
vn 0.000000 0.961971 -0.273152
vn 0.000000 0.961971 -0.273152
vn 0.000000 0.999793 -0.020362
vn 0.000000 0.999793 -0.020362
vn 0.000000 0.961971 -0.273152
vn 0.000000 0.999793 -0.020362
vn 0.000000 0.999793 -0.020362
vn 0.000000 0.999793 -0.020362
vn 0.000000 -0.252333 0.967641
vn 0.000000 -0.252333 0.967641
vn 0.000000 0.999793 -0.020362
vn 0.000000 -0.252333 0.967641
vn 0.000000 -0.252333 0.967641
vn 0.000000 -0.252333 0.967641
vn 0.000000 -0.904526 0.426419
vn 0.000000 -0.904526 0.426419
vn 0.000000 -0.252333 0.967641
vn 0.000000 -0.904526 0.426419
vn 0.000000 -0.904526 0.426419
vn 0.000000 -0.904526 0.426419
vn 0.000000 -1.000000 0.000000
vn 0.000000 -1.000000 0.000000
vn 0.000000 -0.904526 0.426419
vn 0.000000 -1.000000 0.000000
vn 0.000000 -1.000000 0.000000
vn 0.000000 -1.000000 0.000000
vn 0.000000 -0.890835 -0.454326
vn 0.000000 -0.890835 -0.454326
vn 0.000000 -1.000000 0.000000
vn 0.000000 -0.890835 -0.454326
vn 1.000000 0.000000 0.000000
vn 1.000000 0.000000 0.000000
vn 1.000000 0.000000 0.000000
vn 1.000000 0.000000 0.000000
vn 1.000000 0.000000 0.000000
vn 1.000000 0.000000 0.000000
vn 1.000000 0.000000 0.000000
vn 1.000000 0.000000 0.000000
vn 1.000000 0.000000 0.000000
vn 1.000000 0.000000 0.000000
vn 1.000000 0.000000 0.000000
vn 1.000000 0.000000 0.000000
vn 1.000000 0.000000 0.000000
vn 1.000000 0.000000 0.000000
vn 1.000000 0.000000 0.000000
vn -1.000000 0.000000 0.000000
vn -1.000000 0.000000 0.000000
vn -1.000000 0.000000 0.000000
vn -1.000000 0.000000 0.000000
vn -1.000000 0.000000 0.000000
vn -1.000000 0.000000 0.000000
vn -1.000000 0.000000 0.000000
vn -1.000000 0.000000 0.000000
vn -1.000000 0.000000 0.000000
vn -1.000000 0.000000 0.000000
vn -1.000000 0.000000 0.000000
vn -1.000000 0.000000 0.000000
vn -1.000000 0.000000 0.000000
vn -1.000000 0.000000 0.000000
vn -1.000000 0.000000 0.000000
usemtl tread
f 265/223/265 266/224/266 267/225/267
f 268/226/268 269/227/269 270/228/270
f 271/229/271 272/230/272 273/231/273
f 274/232/274 275/233/275 276/234/276
f 277/235/277 278/236/278 279/237/279
f 280/238/280 281/239/281 282/240/282
f 283/241/283 284/242/284 285/243/285
f 286/244/286 287/245/287 288/246/288
f 289/247/289 290/248/290 291/249/291
f 292/250/292 293/251/293 294/252/294
f 295/253/295 296/254/296 297/255/297
f 298/256/298 299/257/299 300/258/300
f 301/259/301 302/260/302 303/261/303
f 304/262/304 305/263/305 306/264/306
usemtl treadSide
f 307/265/307 308/266/308 309/267/309
f 310/268/310 311/269/311 312/270/312
f 313/271/313 314/272/314 315/273/315
f 316/274/316 317/275/317 318/276/318
f 319/277/319 320/278/320 321/279/321
f 322/280/322 323/281/323 324/282/324
f 325/283/325 326/284/326 327/285/327
f 328/286/328 329/287/329 330/288/330
f 331/289/331 332/290/332 333/291/333
f 334/292/334 335/293/335 336/294/336

# Navigation lights. One `p` vertex each, read by the renderer for its
# position only; see docs/tank-model-format.md.

o lightRear
v 0.000000 2.072365 1.274839
p -1

o lightPort
v -0.750000 1.957689 -0.135279
p -1

o lightStarboard
v 0.750000 1.957303 -0.135279
p -1

