# BZFlag high tank, extracted from the BZFlag source tree by
# scripts/extract-bzflag-lod-tanks.mjs. The geometry is upstream's own,
# from src/geometry/models/tank (BZFlag, LGPL 2.1).

o body
v 0.877000 0.716000 -2.820000
v -0.878000 0.716000 -2.820000
v 0.876000 0.829000 -2.800000
v 0.876000 0.829000 -2.800000
v -0.878000 0.716000 -2.820000
v -0.878000 0.829000 -2.800000
v 0.876000 0.829000 -2.800000
v -0.878000 0.829000 -2.800000
v 0.877000 0.990000 -2.570000
v 0.877000 0.990000 -2.570000
v -0.878000 0.829000 -2.800000
v -0.877000 0.990000 -2.570000
v 0.877000 0.990000 -2.570000
v -0.877000 0.990000 -2.570000
v 0.877000 1.010000 -2.170000
v 0.877000 1.010000 -2.170000
v -0.877000 0.990000 -2.570000
v -0.877000 1.010000 -2.170000
v 0.877000 1.010000 -2.170000
v -0.877000 1.010000 -2.170000
v 0.877000 1.130000 -1.760000
v 0.877000 1.130000 -1.760000
v -0.877000 1.010000 -2.170000
v -0.877000 1.130000 -1.760000
v 0.877000 1.130000 -1.760000
v -0.877000 1.130000 -1.760000
v 0.877000 1.130000 1.460000
v 0.877000 1.130000 1.460000
v -0.877000 1.130000 -1.760000
v -0.877000 1.130000 1.460000
v 0.877000 1.130000 1.460000
v -0.877000 1.130000 1.460000
v 0.877000 1.240000 2.900000
v 0.877000 1.240000 2.900000
v -0.877000 1.130000 1.460000
v -0.877000 1.240000 2.900000
v 0.877000 1.240000 2.900000
v -0.877000 1.240000 2.900000
v 0.877000 0.528000 2.740000
v 0.877000 0.528000 2.740000
v -0.877000 1.240000 2.900000
v -0.877000 0.528000 2.740000
v 0.877000 0.528000 2.740000
v -0.877000 0.528000 2.740000
v 0.877000 0.250000 1.620000
v 0.877000 0.250000 1.620000
v -0.877000 0.528000 2.740000
v -0.877000 0.250000 1.620000
v 0.877000 0.250000 1.620000
v -0.877000 0.250000 1.620000
v 0.877000 0.250000 -1.810000
v 0.877000 0.250000 -1.810000
v -0.877000 0.250000 1.620000
v -0.877000 0.250000 -1.810000
v 0.877000 0.250000 -1.810000
v -0.877000 0.250000 -1.810000
v 0.877000 0.408000 -2.610000
v 0.877000 0.408000 -2.610000
v -0.877000 0.250000 -1.810000
v -0.877000 0.408000 -2.610000
v 0.877000 0.408000 -2.610000
v -0.877000 0.408000 -2.610000
v 0.877000 0.684000 -2.680000
v 0.877000 0.684000 -2.680000
v -0.877000 0.408000 -2.610000
v -0.877000 0.684000 -2.680000
v 0.877000 0.684000 -2.680000
v -0.877000 0.684000 -2.680000
v 0.877000 0.716000 -2.820000
v 0.877000 0.716000 -2.820000
v -0.877000 0.684000 -2.680000
v -0.878000 0.716000 -2.820000
v -0.686000 1.070000 2.820000
v -0.686000 1.070000 3.080000
v -0.686000 1.170000 2.820000
v -0.686000 1.170000 2.820000
v -0.686000 1.070000 3.080000
v -0.686000 1.170000 3.080000
v -0.686000 1.170000 2.820000
v -0.686000 1.170000 3.080000
v -0.367000 1.170000 2.820000
v -0.367000 1.170000 2.820000
v -0.686000 1.170000 3.080000
v -0.367000 1.170000 3.080000
v -0.367000 1.170000 2.820000
v -0.367000 1.170000 3.080000
v -0.367000 1.070000 2.820000
v -0.367000 1.070000 2.820000
v -0.367000 1.170000 3.080000
v -0.367000 1.070000 3.080000
v -0.367000 1.070000 2.820000
v -0.367000 1.070000 3.080000
v -0.686000 1.070000 2.820000
v -0.686000 1.070000 2.820000
v -0.367000 1.070000 3.080000
v -0.686000 1.070000 3.080000
v -0.686000 1.170000 3.080000
v -0.686000 1.070000 3.080000
v -0.367000 1.170000 3.080000
v -0.367000 1.170000 3.080000
v -0.686000 1.070000 3.080000
v -0.367000 1.070000 3.080000
v 0.084000 1.070000 2.840000
v 0.084000 1.070000 3.100000
v 0.084000 1.170000 2.840000
v 0.084000 1.170000 2.840000
v 0.084000 1.070000 3.100000
v 0.084000 1.170000 3.100000
v 0.084000 1.170000 2.840000
v 0.084000 1.170000 3.100000
v 0.877000 1.170000 2.840000
v 0.877000 1.170000 2.840000
v 0.084000 1.170000 3.100000
v 0.877000 1.170000 3.100000
v 0.877000 1.170000 2.840000
v 0.877000 1.170000 3.100000
v 0.877000 1.070000 2.840000
v 0.877000 1.070000 2.840000
v 0.877000 1.170000 3.100000
v 0.877000 1.070000 3.100000
v 0.877000 1.070000 2.840000
v 0.877000 1.070000 3.100000
v 0.084000 1.070000 2.840000
v 0.084000 1.070000 2.840000
v 0.877000 1.070000 3.100000
v 0.084000 1.070000 3.100000
v 0.084000 1.170000 3.100000
v 0.084000 1.070000 3.100000
v 0.877000 1.170000 3.100000
v 0.877000 1.170000 3.100000
v 0.084000 1.070000 3.100000
v 0.877000 1.070000 3.100000
v 0.876917 0.763750 -0.875000
v 0.877000 0.716000 -2.820000
v 0.876000 0.829000 -2.800000
v 0.876917 0.763750 -0.875000
v 0.877000 0.684000 -2.680000
v 0.877000 0.716000 -2.820000
v 0.876917 0.763750 -0.875000
v 0.877000 0.408000 -2.610000
v 0.877000 0.684000 -2.680000
v 0.876917 0.763750 -0.875000
v 0.877000 0.250000 -1.810000
v 0.877000 0.408000 -2.610000
v 0.876917 0.763750 -0.875000
v 0.877000 0.250000 1.620000
v 0.877000 0.250000 -1.810000
v 0.876917 0.763750 -0.875000
v 0.877000 0.528000 2.740000
v 0.877000 0.250000 1.620000
v 0.876917 0.763750 -0.875000
v 0.877000 1.240000 2.900000
v 0.877000 0.528000 2.740000
v 0.876917 0.763750 -0.875000
v 0.877000 1.130000 1.460000
v 0.877000 1.240000 2.900000
v 0.876917 0.763750 -0.875000
v 0.877000 1.130000 -1.760000
v 0.877000 1.130000 1.460000
v 0.876917 0.763750 -0.875000
v 0.877000 1.010000 -2.170000
v 0.877000 1.130000 -1.760000
v 0.876917 0.763750 -0.875000
v 0.877000 0.990000 -2.570000
v 0.877000 1.010000 -2.170000
v 0.876917 0.763750 -0.875000
v 0.876000 0.829000 -2.800000
v 0.877000 0.990000 -2.570000
v -0.877167 0.763750 -0.875000
v -0.878000 0.829000 -2.800000
v -0.878000 0.716000 -2.820000
v -0.877167 0.763750 -0.875000
v -0.877000 0.990000 -2.570000
v -0.878000 0.829000 -2.800000
v -0.877167 0.763750 -0.875000
v -0.877000 1.010000 -2.170000
v -0.877000 0.990000 -2.570000
v -0.877167 0.763750 -0.875000
v -0.877000 1.130000 -1.760000
v -0.877000 1.010000 -2.170000
v -0.877167 0.763750 -0.875000
v -0.877000 1.130000 1.460000
v -0.877000 1.130000 -1.760000
v -0.877167 0.763750 -0.875000
v -0.877000 1.240000 2.900000
v -0.877000 1.130000 1.460000
v -0.877167 0.763750 -0.875000
v -0.877000 0.528000 2.740000
v -0.877000 1.240000 2.900000
v -0.877167 0.763750 -0.875000
v -0.877000 0.250000 1.620000
v -0.877000 0.528000 2.740000
v -0.877167 0.763750 -0.875000
v -0.877000 0.250000 -1.810000
v -0.877000 0.250000 1.620000
v -0.877167 0.763750 -0.875000
v -0.877000 0.408000 -2.610000
v -0.877000 0.250000 -1.810000
v -0.877167 0.763750 -0.875000
v -0.877000 0.684000 -2.680000
v -0.877000 0.408000 -2.610000
v -0.877167 0.763750 -0.875000
v -0.878000 0.716000 -2.820000
v -0.877000 0.684000 -2.680000
vt 1.210000 2.290000
vt 0.669000 2.040000
vt 1.210000 2.280000
vt 1.210000 2.280000
vt 0.669000 2.040000
vt 0.672000 2.030000
vt 1.210000 2.280000
vt 0.672000 2.030000
vt 1.240000 2.210000
vt 1.240000 2.210000
vt 0.672000 2.030000
vt 0.705000 1.960000
vt 1.240000 2.210000
vt 0.705000 1.960000
vt 1.300000 2.090000
vt 1.300000 2.090000
vt 0.705000 1.960000
vt 0.763000 1.840000
vt 1.300000 2.090000
vt 0.763000 1.840000
vt 1.360000 1.970000
vt 1.360000 1.970000
vt 0.763000 1.840000
vt 0.822000 1.710000
vt 1.360000 1.970000
vt 0.822000 1.710000
vt 1.820000 0.981000
vt 1.820000 0.981000
vt 0.822000 1.710000
vt 1.280000 0.729000
vt 1.820000 0.981000
vt 1.280000 0.729000
vt 2.030000 0.541000
vt 2.030000 0.541000
vt 1.280000 0.729000
vt 1.490000 0.289000
vt 2.030000 0.541000
vt 1.490000 0.289000
vt 2.000000 0.590000
vt 2.000000 0.590000
vt 1.490000 0.289000
vt 1.470000 0.338000
vt 2.000000 0.590000
vt 1.470000 0.338000
vt 1.840000 0.932000
vt 1.840000 0.932000
vt 1.470000 0.338000
vt 1.310000 0.680000
vt 1.840000 0.932000
vt 1.310000 0.680000
vt 1.350000 1.980000
vt 1.350000 1.980000
vt 1.310000 0.680000
vt 0.815000 1.730000
vt 1.350000 1.980000
vt 0.815000 1.730000
vt 1.240000 2.230000
vt 1.240000 2.230000
vt 0.815000 1.730000
vt 0.700000 1.970000
vt 1.240000 2.230000
vt 0.700000 1.970000
vt 1.230000 2.250000
vt 1.230000 2.250000
vt 0.700000 1.970000
vt 0.690000 2.000000
vt 1.230000 2.250000
vt 0.690000 2.000000
vt 1.210000 2.290000
vt 1.210000 2.290000
vt 0.690000 2.000000
vt 0.669000 2.040000
vt 0.935889 0.355107
vt 1.022177 0.355107
vt 0.935889 0.388294
vt 0.935889 0.388294
vt 1.022177 0.355107
vt 1.580000 0.261000
vt 0.935889 0.388294
vt 1.580000 0.261000
vt 0.935889 0.388294
vt 0.935889 0.388294
vt 1.580000 0.261000
vt 1.022177 0.388294
vt 0.935889 0.388294
vt 1.022177 0.388294
vt 0.935889 0.355107
vt 0.935889 0.355107
vt 1.022177 0.388294
vt 1.670000 0.307000
vt 0.935889 0.355107
vt 1.670000 0.307000
vt 1.540000 0.341000
vt 1.540000 0.341000
vt 1.670000 0.307000
vt 1.580000 0.261000
vt -0.227667 0.388294
vt -0.227667 0.355107
vt -0.121798 0.388294
vt -0.121798 0.388294
vt -0.227667 0.355107
vt 1.670000 0.307000
vt 0.942526 0.355107
vt 1.028814 0.355107
vt 0.942526 0.388294
vt 0.942526 0.388294
vt 1.028814 0.355107
vt 1.810000 0.366000
vt 0.942526 0.388294
vt 1.810000 0.366000
vt 0.942526 0.388294
vt 0.942526 0.388294
vt 1.810000 0.366000
vt 1.028814 0.388294
vt 0.942526 0.388294
vt 1.028814 0.388294
vt 0.942526 0.355107
vt 0.942526 0.355107
vt 1.028814 0.388294
vt 2.060000 0.480000
vt 0.942526 0.355107
vt 2.060000 0.480000
vt 1.780000 0.445000
vt 1.780000 0.445000
vt 2.060000 0.480000
vt 1.810000 0.366000
vt 0.027878 0.388294
vt 0.027878 0.355107
vt 0.291055 0.388294
vt 0.291055 0.388294
vt 0.027878 0.355107
vt 2.060000 0.480000
vt -0.416979 0.363963
vt -1.343863 0.341208
vt -1.334332 0.395058
vt -0.416979 0.363963
vt -1.277146 0.325958
vt -1.343863 0.341208
vt -0.416979 0.363963
vt -1.243788 0.194431
vt -1.277146 0.325958
vt -0.416979 0.363963
vt -0.862550 0.119137
vt -1.243788 0.194431
vt -0.416979 0.363963
vt 0.772006 0.119137
vt -0.862550 0.119137
vt -0.416979 0.363963
vt 1.305739 0.251617
vt 0.772006 0.119137
vt -0.416979 0.363963
vt 1.381987 0.590918
vt 1.305739 0.251617
vt -0.416979 0.363963
vt 0.695759 0.538498
vt 1.381987 0.590918
vt -0.416979 0.363963
vt -0.838723 0.538498
vt 0.695759 0.538498
vt -0.416979 0.363963
vt -1.034107 0.481313
vt -0.838723 0.538498
vt -0.416979 0.363963
vt -1.224726 0.471782
vt -1.034107 0.481313
vt -0.416979 0.363963
vt -1.334332 0.395058
vt -1.224726 0.471782
vt -0.416979 0.363963
vt -1.334332 0.395058
vt -1.343863 0.341208
vt -0.416979 0.363963
vt -1.224726 0.471782
vt -1.334332 0.395058
vt -0.416979 0.363963
vt -1.034107 0.481313
vt -1.224726 0.471782
vt -0.416979 0.363963
vt -0.838723 0.538498
vt -1.034107 0.481313
vt -0.416979 0.363963
vt 0.695759 0.538498
vt -0.838723 0.538498
vt -0.416979 0.363963
vt 1.381987 0.590918
vt 0.695759 0.538498
vt -0.416979 0.363963
vt 1.305739 0.251617
vt 1.381987 0.590918
vt -0.416979 0.363963
vt 0.772006 0.119137
vt 1.305739 0.251617
vt -0.416979 0.363963
vt -0.862550 0.119137
vt 0.772006 0.119137
vt -0.416979 0.363963
vt -1.243788 0.194431
vt -0.862550 0.119137
vt -0.416979 0.363963
vt -1.277146 0.325958
vt -1.243788 0.194431
vt -0.416979 0.363963
vt -1.343863 0.341208
vt -1.277146 0.325958
vn 0.000000 0.174282 -0.984696
vn 0.000000 0.174282 -0.984696
vn 0.000000 0.174282 -0.984696
vn 0.000000 0.174282 -0.984696
vn 0.000000 0.174282 -0.984696
vn 0.000000 0.174282 -0.984696
vn 0.000000 0.174282 -0.984696
vn 0.000000 0.174282 -0.984696
vn 0.000000 0.819232 -0.573462
vn 0.000000 0.819232 -0.573462
vn 0.000000 0.174282 -0.984696
vn 0.000000 0.819232 -0.573462
vn 0.000000 0.819232 -0.573462
vn 0.000000 0.819232 -0.573462
vn 0.000000 0.998752 -0.049938
vn 0.000000 0.998752 -0.049938
vn 0.000000 0.819232 -0.573462
vn 0.000000 0.998752 -0.049938
vn 0.000000 0.998752 -0.049938
vn 0.000000 0.998752 -0.049938
vn 0.000000 0.959737 -0.280899
vn 0.000000 0.959737 -0.280899
vn 0.000000 0.998752 -0.049938
vn 0.000000 0.959737 -0.280899
vn 0.000000 0.959737 -0.280899
vn 0.000000 0.959737 -0.280899
vn 0.000000 1.000000 0.000000
vn 0.000000 1.000000 0.000000
vn 0.000000 0.959737 -0.280899
vn 0.000000 1.000000 0.000000
vn 0.000000 1.000000 0.000000
vn 0.000000 1.000000 0.000000
vn 0.000000 0.997095 -0.076167
vn 0.000000 0.997095 -0.076167
vn 0.000000 1.000000 0.000000
vn 0.000000 0.997095 -0.076167
vn 0.000000 0.997095 -0.076167
vn 0.000000 0.997095 -0.076167
vn 0.000000 -0.219251 0.975668
vn 0.000000 -0.219251 0.975668
vn 0.000000 0.997095 -0.076167
vn 0.000000 -0.219251 0.975668
vn 0.000000 -0.219251 0.975668
vn 0.000000 -0.219251 0.975668
vn 0.000000 -0.904526 0.426419
vn 0.000000 -0.904526 0.426419
vn 0.000000 -0.219251 0.975668
vn 0.000000 -0.904526 0.426419
vn 0.000000 -0.904526 0.426419
vn 0.000000 -0.904526 0.426419
vn 0.000000 -1.000000 0.000000
vn 0.000000 -1.000000 0.000000
vn 0.000000 -0.904526 0.426419
vn 0.000000 -1.000000 0.000000
vn 0.000000 -1.000000 0.000000
vn 0.000000 -1.000000 0.000000
vn 0.000000 -0.890835 -0.454326
vn 0.000000 -0.890835 -0.454326
vn 0.000000 -1.000000 0.000000
vn 0.000000 -0.890835 -0.454326
vn 0.000000 -0.890835 -0.454326
vn 0.000000 -0.890835 -0.454326
vn 0.000000 -0.245840 -0.969310
vn 0.000000 -0.245840 -0.969310
vn 0.000000 -0.890835 -0.454326
vn 0.000000 -0.245840 -0.969310
vn 0.000000 -0.245840 -0.969310
vn 0.000000 -0.245840 -0.969310
vn 0.000000 -0.974858 -0.222825
vn 0.000000 -0.974858 -0.222825
vn 0.000000 -0.245840 -0.969310
vn 0.000000 -0.974858 -0.222825
vn -1.000000 0.000000 0.000000
vn -1.000000 0.000000 0.000000
vn -1.000000 0.000000 0.000000
vn -1.000000 0.000000 0.000000
vn -1.000000 0.000000 0.000000
vn -1.000000 0.000000 0.000000
vn -1.000000 0.000000 0.000000
vn -1.000000 0.000000 0.000000
vn 0.000000 1.000000 0.000000
vn 0.000000 1.000000 0.000000
vn -1.000000 0.000000 0.000000
vn 0.000000 1.000000 0.000000
vn 0.000000 1.000000 0.000000
vn 0.000000 1.000000 0.000000
vn 1.000000 0.000000 0.000000
vn 1.000000 0.000000 0.000000
vn 0.000000 1.000000 0.000000
vn 1.000000 0.000000 0.000000
vn 1.000000 0.000000 0.000000
vn 1.000000 0.000000 0.000000
vn 0.000000 -1.000000 0.000000
vn 0.000000 -1.000000 0.000000
vn 1.000000 0.000000 0.000000
vn 0.000000 -1.000000 0.000000
vn 0.000000 0.000000 1.000000
vn 0.000000 0.000000 1.000000
vn 0.000000 0.000000 1.000000
vn 0.000000 0.000000 1.000000
vn 0.000000 0.000000 1.000000
vn 0.000000 0.000000 1.000000
vn -1.000000 0.000000 0.000000
vn -1.000000 0.000000 0.000000
vn -1.000000 0.000000 0.000000
vn -1.000000 0.000000 0.000000
vn -1.000000 0.000000 0.000000
vn -1.000000 0.000000 0.000000
vn -1.000000 0.000000 0.000000
vn -1.000000 0.000000 0.000000
vn 0.000000 1.000000 0.000000
vn 0.000000 1.000000 0.000000
vn -1.000000 0.000000 0.000000
vn 0.000000 1.000000 0.000000
vn 0.000000 1.000000 0.000000
vn 0.000000 1.000000 0.000000
vn 1.000000 0.000000 0.000000
vn 1.000000 0.000000 0.000000
vn 0.000000 1.000000 0.000000
vn 1.000000 0.000000 0.000000
vn 1.000000 0.000000 0.000000
vn 1.000000 0.000000 0.000000
vn 0.000000 -1.000000 0.000000
vn 0.000000 -1.000000 0.000000
vn 1.000000 0.000000 0.000000
vn 0.000000 -1.000000 0.000000
vn 0.000000 0.000000 1.000000
vn 0.000000 0.000000 1.000000
vn 0.000000 0.000000 1.000000
vn 0.000000 0.000000 1.000000
vn 0.000000 0.000000 1.000000
vn 0.000000 0.000000 1.000000
vn 1.000000 0.000027 -0.000030
vn 1.000000 0.000027 -0.000030
vn 1.000000 0.000027 -0.000030
vn 1.000000 0.000027 -0.000030
vn 1.000000 0.000027 -0.000030
vn 1.000000 0.000027 -0.000030
vn 1.000000 0.000027 -0.000030
vn 1.000000 0.000027 -0.000030
vn 1.000000 0.000027 -0.000030
vn 1.000000 0.000027 -0.000030
vn 1.000000 0.000027 -0.000030
vn 1.000000 0.000027 -0.000030
vn 1.000000 0.000027 -0.000030
vn 1.000000 0.000027 -0.000030
vn 1.000000 0.000027 -0.000030
vn 1.000000 0.000027 -0.000030
vn 1.000000 0.000027 -0.000030
vn 1.000000 0.000027 -0.000030
vn 1.000000 0.000027 -0.000030
vn 1.000000 0.000027 -0.000030
vn 1.000000 0.000027 -0.000030
vn 1.000000 0.000027 -0.000030
vn 1.000000 0.000027 -0.000030
vn 1.000000 0.000027 -0.000030
vn 1.000000 0.000027 -0.000030
vn 1.000000 0.000027 -0.000030
vn 1.000000 0.000027 -0.000030
vn 1.000000 0.000027 -0.000030
vn 1.000000 0.000027 -0.000030
vn 1.000000 0.000027 -0.000030
vn 1.000000 0.000027 -0.000030
vn 1.000000 0.000027 -0.000030
vn 1.000000 0.000027 -0.000030
vn 1.000000 0.000027 -0.000030
vn 1.000000 0.000027 -0.000030
vn 1.000000 0.000027 -0.000030
vn -1.000000 -0.000014 0.000046
vn -1.000000 -0.000014 0.000046
vn -1.000000 -0.000014 0.000046
vn -1.000000 -0.000014 0.000046
vn -1.000000 -0.000014 0.000046
vn -1.000000 -0.000014 0.000046
vn -1.000000 -0.000014 0.000046
vn -1.000000 -0.000014 0.000046
vn -1.000000 -0.000014 0.000046
vn -1.000000 -0.000014 0.000046
vn -1.000000 -0.000014 0.000046
vn -1.000000 -0.000014 0.000046
vn -1.000000 -0.000014 0.000046
vn -1.000000 -0.000014 0.000046
vn -1.000000 -0.000014 0.000046
vn -1.000000 -0.000014 0.000046
vn -1.000000 -0.000014 0.000046
vn -1.000000 -0.000014 0.000046
vn -1.000000 -0.000014 0.000046
vn -1.000000 -0.000014 0.000046
vn -1.000000 -0.000014 0.000046
vn -1.000000 -0.000014 0.000046
vn -1.000000 -0.000014 0.000046
vn -1.000000 -0.000014 0.000046
vn -1.000000 -0.000014 0.000046
vn -1.000000 -0.000014 0.000046
vn -1.000000 -0.000014 0.000046
vn -1.000000 -0.000014 0.000046
vn -1.000000 -0.000014 0.000046
vn -1.000000 -0.000014 0.000046
vn -1.000000 -0.000014 0.000046
vn -1.000000 -0.000014 0.000046
vn -1.000000 -0.000014 0.000046
vn -1.000000 -0.000014 0.000046
vn -1.000000 -0.000014 0.000046
vn -1.000000 -0.000014 0.000046
f 1/1/1 2/2/2 3/3/3
f 4/4/4 5/5/5 6/6/6
f 7/7/7 8/8/8 9/9/9
f 10/10/10 11/11/11 12/12/12
f 13/13/13 14/14/14 15/15/15
f 16/16/16 17/17/17 18/18/18
f 19/19/19 20/20/20 21/21/21
f 22/22/22 23/23/23 24/24/24
f 25/25/25 26/26/26 27/27/27
f 28/28/28 29/29/29 30/30/30
f 31/31/31 32/32/32 33/33/33
f 34/34/34 35/35/35 36/36/36
f 37/37/37 38/38/38 39/39/39
f 40/40/40 41/41/41 42/42/42
f 43/43/43 44/44/44 45/45/45
f 46/46/46 47/47/47 48/48/48
f 49/49/49 50/50/50 51/51/51
f 52/52/52 53/53/53 54/54/54
f 55/55/55 56/56/56 57/57/57
f 58/58/58 59/59/59 60/60/60
f 61/61/61 62/62/62 63/63/63
f 64/64/64 65/65/65 66/66/66
f 67/67/67 68/68/68 69/69/69
f 70/70/70 71/71/71 72/72/72
f 73/73/73 74/74/74 75/75/75
f 76/76/76 77/77/77 78/78/78
f 79/79/79 80/80/80 81/81/81
f 82/82/82 83/83/83 84/84/84
f 85/85/85 86/86/86 87/87/87
f 88/88/88 89/89/89 90/90/90
f 91/91/91 92/92/92 93/93/93
f 94/94/94 95/95/95 96/96/96
f 97/97/97 98/98/98 99/99/99
f 100/100/100 101/101/101 102/102/102
f 103/103/103 104/104/104 105/105/105
f 106/106/106 107/107/107 108/108/108
f 109/109/109 110/110/110 111/111/111
f 112/112/112 113/113/113 114/114/114
f 115/115/115 116/116/116 117/117/117
f 118/118/118 119/119/119 120/120/120
f 121/121/121 122/122/122 123/123/123
f 124/124/124 125/125/125 126/126/126
f 127/127/127 128/128/128 129/129/129
f 130/130/130 131/131/131 132/132/132
f 133/133/133 134/134/134 135/135/135
f 136/136/136 137/137/137 138/138/138
f 139/139/139 140/140/140 141/141/141
f 142/142/142 143/143/143 144/144/144
f 145/145/145 146/146/146 147/147/147
f 148/148/148 149/149/149 150/150/150
f 151/151/151 152/152/152 153/153/153
f 154/154/154 155/155/155 156/156/156
f 157/157/157 158/158/158 159/159/159
f 160/160/160 161/161/161 162/162/162
f 163/163/163 164/164/164 165/165/165
f 166/166/166 167/167/167 168/168/168
f 169/169/169 170/170/170 171/171/171
f 172/172/172 173/173/173 174/174/174
f 175/175/175 176/176/176 177/177/177
f 178/178/178 179/179/179 180/180/180
f 181/181/181 182/182/182 183/183/183
f 184/184/184 185/185/185 186/186/186
f 187/187/187 188/188/188 189/189/189
f 190/190/190 191/191/191 192/192/192
f 193/193/193 194/194/194 195/195/195
f 196/196/196 197/197/197 198/198/198
f 199/199/199 200/200/200 201/201/201
f 202/202/202 203/203/203 204/204/204

o turret
v -0.762000 1.970000 0.946000
v -0.765000 1.510000 0.964000
v -0.764000 2.050000 1.370000
v -0.764000 2.050000 1.370000
v -0.765000 1.510000 0.964000
v -0.764000 1.560000 1.450000
v 0.765000 2.050000 1.370000
v 0.765000 1.560000 1.450000
v 0.766000 1.970000 0.946000
v 0.766000 1.970000 0.946000
v 0.765000 1.560000 1.450000
v 0.765000 1.510000 0.964000
v -1.080000 1.040000 0.456000
v 1.060000 1.040000 0.456000
v -1.080000 1.310000 0.456000
v -1.080000 1.310000 0.456000
v 1.060000 1.040000 0.456000
v 1.060000 1.310000 0.456000
v -1.080000 1.310000 0.456000
v 1.060000 1.310000 0.456000
v -0.765000 1.510000 0.964000
v -0.765000 1.510000 0.964000
v 1.060000 1.310000 0.456000
v 0.765000 1.510000 0.964000
v 0.516000 1.040000 -1.480000
v -0.516000 1.040000 -1.480000
v 0.516000 1.310000 -1.480000
v 0.516000 1.310000 -1.480000
v -0.516000 1.040000 -1.480000
v -0.516000 1.310000 -1.480000
v 0.516000 1.310000 -1.480000
v -0.516000 1.310000 -1.480000
v 0.434000 1.540000 -1.770000
v 0.434000 1.540000 -1.770000
v -0.516000 1.310000 -1.480000
v -0.434000 1.540000 -1.770000
v 0.434000 1.540000 -1.770000
v -0.434000 1.540000 -1.770000
v 0.434000 1.790000 -1.580000
v 0.434000 1.790000 -1.580000
v -0.434000 1.540000 -1.770000
v -0.435000 1.790000 -1.580000
v 0.434000 1.790000 -1.580000
v -0.435000 1.790000 -1.580000
v 0.697000 1.950000 -1.090000
v 0.697000 1.950000 -1.090000
v -0.435000 1.790000 -1.580000
v -0.697000 1.950000 -1.090000
v 0.697000 1.950000 -1.090000
v -0.697000 1.950000 -1.090000
v 1.110000 1.940000 -0.001000
v 1.110000 1.940000 -0.001000
v -0.697000 1.950000 -1.090000
v -1.110000 1.940000 -0.007000
v 1.110000 1.940000 -0.001000
v -1.110000 1.940000 -0.007000
v 0.984000 1.910000 0.611000
v 0.984000 1.910000 0.611000
v -1.110000 1.940000 -0.007000
v -1.010000 1.910000 0.611000
v 0.984000 1.910000 0.611000
v -1.010000 1.910000 0.611000
v 0.766000 1.970000 0.946000
v 0.766000 1.970000 0.946000
v -1.010000 1.910000 0.611000
v -0.762000 1.970000 0.946000
v -0.599000 2.050000 0.548000
v -0.599000 1.920000 0.548000
v 0.599000 2.050000 0.548000
v 0.599000 2.050000 0.548000
v -0.599000 1.920000 0.548000
v 0.599000 1.920000 0.548000
v 0.796000 2.050000 0.156000
v 0.757000 2.050000 -0.108000
v 0.704000 2.050000 0.418000
v 0.704000 2.050000 0.418000
v 0.757000 2.050000 -0.108000
v 0.644000 2.050000 -0.238000
v 0.704000 2.050000 0.418000
v 0.644000 2.050000 -0.238000
v 0.599000 2.050000 0.548000
v 0.599000 2.050000 0.548000
v 0.644000 2.050000 -0.238000
v 0.503000 2.050000 -0.313000
v 0.599000 2.050000 0.548000
v 0.503000 2.050000 -0.313000
v -0.599000 2.050000 0.548000
v -0.599000 2.050000 0.548000
v 0.503000 2.050000 -0.313000
v -0.503000 2.050000 -0.313000
v -0.599000 2.050000 0.548000
v -0.503000 2.050000 -0.313000
v -0.704000 2.050000 0.418000
v -0.704000 2.050000 0.418000
v -0.503000 2.050000 -0.313000
v -0.644000 2.050000 -0.238000
v -0.704000 2.050000 0.418000
v -0.644000 2.050000 -0.238000
v -0.796000 2.050000 0.156000
v -0.796000 2.050000 0.156000
v -0.644000 2.050000 -0.238000
v -0.757000 2.050000 -0.108000
v 0.766000 1.970000 0.946000
v 0.765000 1.510000 0.964000
v 0.984000 1.910000 0.611000
v 0.984000 1.910000 0.611000
v 0.765000 1.510000 0.964000
v 1.060000 1.310000 0.456000
v 0.984000 1.910000 0.611000
v 1.060000 1.310000 0.456000
v 1.110000 1.940000 -0.001000
v 1.110000 1.940000 -0.001000
v 1.060000 1.310000 0.456000
v 1.100000 1.300000 -0.014000
v 1.110000 1.940000 -0.001000
v 1.100000 1.300000 -0.014000
v 0.697000 1.950000 -1.090000
v 0.697000 1.950000 -1.090000
v 1.100000 1.300000 -0.014000
v 0.749000 1.300000 -0.912000
v 0.697000 1.950000 -1.090000
v 0.749000 1.300000 -0.912000
v 0.434000 1.790000 -1.580000
v 0.434000 1.790000 -1.580000
v 0.749000 1.300000 -0.912000
v 0.516000 1.310000 -1.480000
v 0.434000 1.790000 -1.580000
v 0.516000 1.310000 -1.480000
v 0.434000 1.540000 -1.770000
v -0.434000 1.540000 -1.770000
v -0.516000 1.310000 -1.480000
v -0.435000 1.790000 -1.580000
v -0.435000 1.790000 -1.580000
v -0.516000 1.310000 -1.480000
v -0.749000 1.300000 -0.912000
v -0.435000 1.790000 -1.580000
v -0.749000 1.300000 -0.912000
v -0.697000 1.950000 -1.090000
v -0.697000 1.950000 -1.090000
v -0.749000 1.300000 -0.912000
v -1.100000 1.300000 -0.014000
v -0.697000 1.950000 -1.090000
v -1.100000 1.300000 -0.014000
v -1.110000 1.940000 -0.007000
v -1.110000 1.940000 -0.007000
v -1.100000 1.300000 -0.014000
v -1.080000 1.310000 0.456000
v -1.110000 1.940000 -0.007000
v -1.080000 1.310000 0.456000
v -1.010000 1.910000 0.611000
v -1.010000 1.910000 0.611000
v -1.080000 1.310000 0.456000
v -0.765000 1.510000 0.964000
v -1.010000 1.910000 0.611000
v -0.765000 1.510000 0.964000
v -0.762000 1.970000 0.946000
v -0.764000 2.050000 1.370000
v -0.764000 1.560000 1.450000
v -0.382000 2.050000 1.510000
v -0.382000 2.050000 1.510000
v -0.764000 1.560000 1.450000
v -0.382000 1.560000 1.580000
v -0.382000 2.050000 1.510000
v -0.382000 1.560000 1.580000
v 0.010000 2.050000 1.560000
v 0.010000 2.050000 1.560000
v -0.382000 1.560000 1.580000
v 0.010000 1.560000 1.640000
v 0.010000 2.050000 1.560000
v 0.010000 1.560000 1.640000
v 0.383000 2.050000 1.510000
v 0.383000 2.050000 1.510000
v 0.010000 1.560000 1.640000
v 0.383000 1.560000 1.580000
v 0.383000 2.050000 1.510000
v 0.383000 1.560000 1.580000
v 0.765000 2.050000 1.370000
v 0.765000 2.050000 1.370000
v 0.383000 1.560000 1.580000
v 0.765000 1.560000 1.450000
v 1.060000 1.310000 0.456000
v 1.060000 1.040000 0.456000
v 1.100000 1.300000 -0.014000
v 1.100000 1.300000 -0.014000
v 1.060000 1.040000 0.456000
v 1.100000 1.030000 -0.014000
v 1.100000 1.300000 -0.014000
v 1.100000 1.030000 -0.014000
v 0.749000 1.300000 -0.912000
v 0.749000 1.300000 -0.912000
v 1.100000 1.030000 -0.014000
v 0.749000 1.030000 -0.912000
v 0.749000 1.300000 -0.912000
v 0.749000 1.030000 -0.912000
v 0.516000 1.310000 -1.480000
v 0.516000 1.310000 -1.480000
v 0.749000 1.030000 -0.912000
v 0.516000 1.040000 -1.480000
v -0.516000 1.310000 -1.480000
v -0.516000 1.040000 -1.480000
v -0.749000 1.300000 -0.912000
v -0.749000 1.300000 -0.912000
v -0.516000 1.040000 -1.480000
v -0.749000 1.030000 -0.912000
v -0.749000 1.300000 -0.912000
v -0.749000 1.030000 -0.912000
v -1.100000 1.300000 -0.014000
v -1.100000 1.300000 -0.014000
v -0.749000 1.030000 -0.912000
v -1.100000 1.030000 -0.014000
v -1.100000 1.300000 -0.014000
v -1.100000 1.030000 -0.014000
v -1.080000 1.310000 0.456000
v -1.080000 1.310000 0.456000
v -1.100000 1.030000 -0.014000
v -1.080000 1.040000 0.456000
v 0.599000 2.050000 0.548000
v 0.599000 1.920000 0.548000
v 0.704000 2.050000 0.418000
v 0.704000 2.050000 0.418000
v 0.599000 1.920000 0.548000
v 0.704000 1.920000 0.418000
v 0.704000 2.050000 0.418000
v 0.704000 1.920000 0.418000
v 0.796000 2.050000 0.156000
v 0.796000 2.050000 0.156000
v 0.704000 1.920000 0.418000
v 0.796000 1.920000 0.156000
v 0.796000 2.050000 0.156000
v 0.796000 1.920000 0.156000
v 0.757000 2.050000 -0.108000
v 0.757000 2.050000 -0.108000
v 0.796000 1.920000 0.156000
v 0.757000 1.920000 -0.108000
v 0.757000 2.050000 -0.108000
v 0.757000 1.920000 -0.108000
v 0.644000 2.050000 -0.238000
v 0.644000 2.050000 -0.238000
v 0.757000 1.920000 -0.108000
v 0.644000 1.920000 -0.238000
v 0.644000 2.050000 -0.238000
v 0.644000 1.920000 -0.238000
v 0.503000 2.050000 -0.313000
v 0.503000 2.050000 -0.313000
v 0.644000 1.920000 -0.238000
v 0.503000 1.920000 -0.313000
v 0.503000 2.050000 -0.313000
v 0.503000 1.920000 -0.313000
v -0.503000 2.050000 -0.313000
v -0.503000 2.050000 -0.313000
v 0.503000 1.920000 -0.313000
v -0.503000 1.920000 -0.313000
v -0.503000 2.050000 -0.313000
v -0.503000 1.920000 -0.313000
v -0.644000 2.050000 -0.238000
v -0.644000 2.050000 -0.238000
v -0.503000 1.920000 -0.313000
v -0.644000 1.920000 -0.238000
v -0.644000 2.050000 -0.238000
v -0.644000 1.920000 -0.238000
v -0.757000 2.050000 -0.108000
v -0.757000 2.050000 -0.108000
v -0.644000 1.920000 -0.238000
v -0.757000 1.920000 -0.108000
v -0.757000 2.050000 -0.108000
v -0.757000 1.920000 -0.108000
v -0.796000 2.050000 0.156000
v -0.796000 2.050000 0.156000
v -0.757000 1.920000 -0.108000
v -0.796000 1.920000 0.156000
v -0.796000 2.050000 0.156000
v -0.796000 1.920000 0.156000
v -0.704000 2.050000 0.418000
v -0.704000 2.050000 0.418000
v -0.796000 1.920000 0.156000
v -0.704000 1.920000 0.418000
v -0.704000 2.050000 0.418000
v -0.704000 1.920000 0.418000
v -0.599000 2.050000 0.548000
v -0.599000 2.050000 0.548000
v -0.704000 1.920000 0.418000
v -0.599000 1.920000 0.548000
v -0.765000 1.510000 0.964000
v 0.765000 1.510000 0.964000
v 0.765000 1.560000 1.450000
v -0.765000 1.510000 0.964000
v 0.765000 1.560000 1.450000
v 0.383000 1.560000 1.580000
v -0.765000 1.510000 0.964000
v 0.383000 1.560000 1.580000
v 0.010000 1.560000 1.640000
v -0.765000 1.510000 0.964000
v 0.010000 1.560000 1.640000
v -0.382000 1.560000 1.580000
v -0.765000 1.510000 0.964000
v -0.382000 1.560000 1.580000
v -0.764000 1.560000 1.450000
v -0.762000 1.970000 0.946000
v -0.764000 2.050000 1.370000
v -0.382000 2.050000 1.510000
v -0.762000 1.970000 0.946000
v -0.382000 2.050000 1.510000
v 0.010000 2.050000 1.560000
v -0.762000 1.970000 0.946000
v 0.010000 2.050000 1.560000
v 0.383000 2.050000 1.510000
v -0.762000 1.970000 0.946000
v 0.383000 2.050000 1.510000
v 0.765000 2.050000 1.370000
v -0.762000 1.970000 0.946000
v 0.765000 2.050000 1.370000
v 0.766000 1.970000 0.946000
v -0.002500 1.035000 -0.487500
v 1.060000 1.040000 0.456000
v -1.080000 1.040000 0.456000
v -0.002500 1.035000 -0.487500
v 1.100000 1.030000 -0.014000
v 1.060000 1.040000 0.456000
v -0.002500 1.035000 -0.487500
v 0.749000 1.030000 -0.912000
v 1.100000 1.030000 -0.014000
v -0.002500 1.035000 -0.487500
v 0.516000 1.040000 -1.480000
v 0.749000 1.030000 -0.912000
v -0.002500 1.035000 -0.487500
v -0.516000 1.040000 -1.480000
v 0.516000 1.040000 -1.480000
v -0.002500 1.035000 -0.487500
v -0.749000 1.030000 -0.912000
v -0.516000 1.040000 -1.480000
v -0.002500 1.035000 -0.487500
v -1.100000 1.030000 -0.014000
v -0.749000 1.030000 -0.912000
v -0.002500 1.035000 -0.487500
v -1.080000 1.040000 0.456000
v -1.100000 1.030000 -0.014000
v 0.000000 1.920000 0.077167
v 0.599000 1.920000 0.548000
v -0.599000 1.920000 0.548000
v 0.000000 1.920000 0.077167
v 0.704000 1.920000 0.418000
v 0.599000 1.920000 0.548000
v 0.000000 1.920000 0.077167
v 0.796000 1.920000 0.156000
v 0.704000 1.920000 0.418000
v 0.000000 1.920000 0.077167
v 0.757000 1.920000 -0.108000
v 0.796000 1.920000 0.156000
v 0.000000 1.920000 0.077167
v 0.644000 1.920000 -0.238000
v 0.757000 1.920000 -0.108000
v 0.000000 1.920000 0.077167
v 0.503000 1.920000 -0.313000
v 0.644000 1.920000 -0.238000
v 0.000000 1.920000 0.077167
v -0.503000 1.920000 -0.313000
v 0.503000 1.920000 -0.313000
v 0.000000 1.920000 0.077167
v -0.644000 1.920000 -0.238000
v -0.503000 1.920000 -0.313000
v 0.000000 1.920000 0.077167
v -0.757000 1.920000 -0.108000
v -0.644000 1.920000 -0.238000
v 0.000000 1.920000 0.077167
v -0.796000 1.920000 0.156000
v -0.757000 1.920000 -0.108000
v 0.000000 1.920000 0.077167
v -0.704000 1.920000 0.418000
v -0.796000 1.920000 0.156000
v 0.000000 1.920000 0.077167
v -0.599000 1.920000 0.548000
v -0.704000 1.920000 0.418000
vt 0.999000 0.075000
vt 1.060000 0.015000
vt 1.080000 0.169000
vt 1.080000 0.169000
vt 1.060000 0.015000
vt 1.160000 0.119000
vt 0.866000 0.402000
vt 0.822000 0.484000
vt 0.766000 0.326000
vt 0.766000 0.326000
vt 0.822000 0.484000
vt 0.711000 0.394000
vt 0.996000 -0.132000
vt 0.559000 0.339000
vt 0.973000 -0.107000
vt 0.973000 -0.107000
vt 0.559000 0.339000
vt 0.583000 0.312000
vt 0.973000 -0.107000
vt 0.583000 0.312000
vt 1.060000 0.015000
vt 1.060000 0.015000
vt 0.583000 0.312000
vt 0.711000 0.394000
vt 0.107000 -0.009000
vt 0.617000 -0.559000
vt 0.143000 -0.049000
vt 0.143000 -0.049000
vt 0.617000 -0.559000
vt 0.581000 -0.519000
vt 0.143000 -0.049000
vt 0.581000 -0.519000
vt 0.126000 -0.155000
vt 0.126000 -0.155000
vt 0.581000 -0.519000
vt 0.473000 -0.529000
vt 0.126000 -0.155000
vt 0.473000 -0.529000
vt 0.224000 -0.178000
vt 0.224000 -0.178000
vt 0.473000 -0.529000
vt 0.457000 -0.429000
vt 0.224000 -0.178000
vt 0.457000 -0.429000
vt 0.331000 -0.083000
vt 0.331000 -0.083000
vt 0.457000 -0.429000
vt 0.560000 -0.329000
vt 0.331000 -0.083000
vt 0.560000 -0.329000
vt 0.546000 0.156000
vt 0.546000 0.156000
vt 0.560000 -0.329000
vt 0.812000 -0.134000
vt 0.546000 0.156000
vt 0.812000 -0.134000
vt 0.678000 0.276000
vt 0.678000 0.276000
vt 0.812000 -0.134000
vt 0.944000 -0.010000
vt 0.678000 0.276000
vt 0.944000 -0.010000
vt 0.766000 0.326000
vt 0.766000 0.326000
vt 0.944000 -0.010000
vt 0.999000 0.075000
vt 0.890000 0.022000
vt 0.909000 0.002000
vt 0.706000 0.220000
vt 0.706000 0.220000
vt 0.909000 0.002000
vt 0.687000 0.241000
vt 0.606000 0.158000
vt 0.552000 0.102000
vt 0.669000 0.204000
vt 0.669000 0.204000
vt 0.552000 0.102000
vt 0.532000 0.067000
vt 0.669000 0.204000
vt 0.532000 0.067000
vt 0.706000 0.220000
vt 0.706000 0.220000
vt 0.532000 0.067000
vt 0.529000 0.038000
vt 0.706000 0.220000
vt 0.529000 0.038000
vt 0.890000 0.022000
vt 0.890000 0.022000
vt 0.529000 0.038000
vt 0.695000 -0.140000
vt 0.890000 0.022000
vt 0.695000 -0.140000
vt 0.871000 -0.013000
vt 0.871000 -0.013000
vt 0.695000 -0.140000
vt 0.725000 -0.139000
vt 0.871000 -0.013000
vt 0.725000 -0.139000
vt 0.820000 -0.072000
vt 0.820000 -0.072000
vt 0.725000 -0.139000
vt 0.760000 -0.122000
vt 0.766000 0.326000
vt 0.711000 0.394000
vt 0.678000 0.276000
vt 0.678000 0.276000
vt 0.711000 0.394000
vt 0.583000 0.312000
vt 0.678000 0.276000
vt 0.583000 0.312000
vt 0.546000 0.156000
vt 0.546000 0.156000
vt 0.583000 0.312000
vt 0.482000 0.218000
vt 0.546000 0.156000
vt 0.482000 0.218000
vt 0.331000 -0.083000
vt 0.331000 -0.083000
vt 0.482000 0.218000
vt 0.279000 0.051000
vt 0.331000 -0.083000
vt 0.279000 0.051000
vt 0.224000 -0.178000
vt 0.224000 -0.178000
vt 0.279000 0.051000
vt 0.143000 -0.049000
vt 0.224000 -0.178000
vt 0.143000 -0.049000
vt 0.126000 -0.155000
vt 0.473000 -0.529000
vt 0.581000 -0.519000
vt 0.457000 -0.429000
vt 0.457000 -0.429000
vt 0.581000 -0.519000
vt 0.690000 -0.391000
vt 0.457000 -0.429000
vt 0.690000 -0.391000
vt 0.560000 -0.329000
vt 0.560000 -0.329000
vt 0.690000 -0.391000
vt 0.872000 -0.201000
vt 0.560000 -0.329000
vt 0.872000 -0.201000
vt 0.812000 -0.134000
vt 0.812000 -0.134000
vt 0.872000 -0.201000
vt 0.973000 -0.107000
vt 0.812000 -0.134000
vt 0.973000 -0.107000
vt 0.944000 -0.010000
vt 0.944000 -0.010000
vt 0.973000 -0.107000
vt 1.060000 0.015000
vt 0.944000 -0.010000
vt 1.060000 0.015000
vt 0.999000 0.075000
vt 1.080000 0.169000
vt 1.160000 0.119000
vt 1.080000 0.236000
vt 1.080000 0.236000
vt 1.160000 0.119000
vt 1.190000 0.146000
vt 1.080000 0.236000
vt 1.190000 0.146000
vt 1.010000 0.325000
vt 1.010000 0.325000
vt 1.190000 0.146000
vt 0.912000 0.468000
vt 1.010000 0.325000
vt 0.912000 0.468000
vt 0.933000 0.390000
vt 0.933000 0.390000
vt 0.912000 0.468000
vt 0.850000 0.509000
vt 0.933000 0.390000
vt 0.850000 0.509000
vt 0.866000 0.402000
vt 0.866000 0.402000
vt 0.850000 0.509000
vt 0.822000 0.484000
vt 0.583000 0.312000
vt 0.559000 0.339000
vt 0.482000 0.218000
vt 0.482000 0.218000
vt 0.559000 0.339000
vt 0.458000 0.244000
vt 0.482000 0.218000
vt 0.458000 0.244000
vt 0.279000 0.051000
vt 0.279000 0.051000
vt 0.458000 0.244000
vt 0.248000 0.084000
vt 0.279000 0.051000
vt 0.248000 0.084000
vt 0.143000 -0.049000
vt 0.143000 -0.049000
vt 0.248000 0.084000
vt 0.107000 -0.009000
vt 0.581000 -0.519000
vt 0.617000 -0.559000
vt 0.690000 -0.391000
vt 0.690000 -0.391000
vt 0.617000 -0.559000
vt 0.721000 -0.424000
vt 0.690000 -0.391000
vt 0.721000 -0.424000
vt 0.872000 -0.201000
vt 0.872000 -0.201000
vt 0.721000 -0.424000
vt 0.895000 -0.226000
vt 0.872000 -0.201000
vt 0.895000 -0.226000
vt 0.973000 -0.107000
vt 0.973000 -0.107000
vt 0.895000 -0.226000
vt 0.996000 -0.132000
vt 0.706000 0.220000
vt 0.687000 0.241000
vt 0.669000 0.204000
vt 0.669000 0.204000
vt 0.687000 0.241000
vt 0.651000 0.223000
vt 0.669000 0.204000
vt 0.651000 0.223000
vt 0.606000 0.158000
vt 0.606000 0.158000
vt 0.651000 0.223000
vt 0.589000 0.176000
vt 0.606000 0.158000
vt 0.589000 0.176000
vt 0.552000 0.102000
vt 0.552000 0.102000
vt 0.589000 0.176000
vt 0.535000 0.120000
vt 0.552000 0.102000
vt 0.535000 0.120000
vt 0.532000 0.067000
vt 0.532000 0.067000
vt 0.535000 0.120000
vt 0.514000 0.087000
vt 0.532000 0.067000
vt 0.514000 0.087000
vt 0.529000 0.038000
vt 0.529000 0.038000
vt 0.514000 0.087000
vt 0.510000 0.059000
vt 0.529000 0.038000
vt 0.510000 0.059000
vt 0.695000 -0.140000
vt 0.695000 -0.140000
vt 0.510000 0.059000
vt 0.715000 -0.161000
vt 0.695000 -0.140000
vt 0.715000 -0.161000
vt 0.725000 -0.139000
vt 0.725000 -0.139000
vt 0.715000 -0.161000
vt 0.743000 -0.159000
vt 0.725000 -0.139000
vt 0.743000 -0.159000
vt 0.760000 -0.122000
vt 0.760000 -0.122000
vt 0.743000 -0.159000
vt 0.778000 -0.140000
vt 0.760000 -0.122000
vt 0.778000 -0.140000
vt 0.820000 -0.072000
vt 0.820000 -0.072000
vt 0.778000 -0.140000
vt 0.837000 -0.090000
vt 0.820000 -0.072000
vt 0.837000 -0.090000
vt 0.871000 -0.013000
vt 0.871000 -0.013000
vt 0.837000 -0.090000
vt 0.888000 -0.032000
vt 0.871000 -0.013000
vt 0.888000 -0.032000
vt 0.890000 0.022000
vt 0.890000 0.022000
vt 0.888000 -0.032000
vt 0.909000 0.002000
vt 1.060000 0.015000
vt 0.711000 0.394000
vt 0.822000 0.484000
vt 1.060000 0.015000
vt 0.822000 0.484000
vt 0.850000 0.509000
vt 1.060000 0.015000
vt 0.850000 0.509000
vt 0.912000 0.468000
vt 1.060000 0.015000
vt 0.912000 0.468000
vt 1.190000 0.146000
vt 1.060000 0.015000
vt 1.190000 0.146000
vt 1.160000 0.119000
vt 0.999000 0.075000
vt 1.080000 0.169000
vt 1.080000 0.236000
vt 0.999000 0.075000
vt 1.080000 0.236000
vt 1.010000 0.325000
vt 0.999000 0.075000
vt 1.010000 0.325000
vt 0.933000 0.390000
vt 0.999000 0.075000
vt 0.933000 0.390000
vt 0.866000 0.402000
vt 0.999000 0.075000
vt 0.866000 0.402000
vt 0.766000 0.326000
vt -0.000687 -0.134040
vt 0.291451 0.125379
vt -0.296950 0.125379
vt -0.000687 -0.134040
vt 0.302449 -0.003849
vt 0.291451 0.125379
vt -0.000687 -0.134040
vt 0.205941 -0.250758
vt 0.302449 -0.003849
vt -0.000687 -0.134040
vt 0.141876 -0.406932
vt 0.205941 -0.250758
vt -0.000687 -0.134040
vt -0.141876 -0.406932
vt 0.141876 -0.406932
vt -0.000687 -0.134040
vt -0.205941 -0.250758
vt -0.141876 -0.406932
vt -0.000687 -0.134040
vt -0.302449 -0.003849
vt -0.205941 -0.250758
vt -0.000687 -0.134040
vt -0.296950 0.125379
vt -0.302449 -0.003849
vt 0.000000 0.021217
vt 0.164697 0.150675
vt -0.164697 0.150675
vt 0.000000 0.021217
vt 0.193568 0.114931
vt 0.164697 0.150675
vt 0.000000 0.021217
vt 0.218863 0.042893
vt 0.193568 0.114931
vt 0.000000 0.021217
vt 0.208140 -0.029695
vt 0.218863 0.042893
vt 0.000000 0.021217
vt 0.177070 -0.065439
vt 0.208140 -0.029695
vt 0.000000 0.021217
vt 0.138302 -0.086061
vt 0.177070 -0.065439
vt 0.000000 0.021217
vt -0.138302 -0.086061
vt 0.138302 -0.086061
vt 0.000000 0.021217
vt -0.177070 -0.065439
vt -0.138302 -0.086061
vt 0.000000 0.021217
vt -0.208140 -0.029695
vt -0.177070 -0.065439
vt 0.000000 0.021217
vt -0.218863 0.042893
vt -0.208140 -0.029695
vt 0.000000 0.021217
vt -0.193568 0.114931
vt -0.218863 0.042893
vt 0.000000 0.021217
vt -0.164697 0.150675
vt -0.193568 0.114931
vn -0.999963 0.006290 -0.005904
vn -0.999963 0.006290 -0.005904
vn -0.999963 0.006290 -0.005904
vn -0.999963 0.006290 -0.005904
vn -0.999963 0.006290 -0.005904
vn -0.999998 0.000330 0.002024
vn 0.999997 0.000374 0.002288
vn 0.999997 0.000374 0.002288
vn 0.999997 0.000374 0.002288
vn 0.999997 0.000374 0.002288
vn 0.999997 0.000374 0.002288
vn 0.999998 -0.002165 0.000223
vn 0.000000 0.000000 1.000000
vn 0.000000 0.000000 1.000000
vn 0.000000 0.000000 1.000000
vn 0.000000 0.000000 1.000000
vn 0.000000 0.000000 1.000000
vn 0.000000 0.000000 1.000000
vn 0.000000 0.000000 1.000000
vn 0.000000 0.000000 1.000000
vn 0.000000 -0.930484 0.366332
vn 0.000000 -0.930484 0.366332
vn 0.000000 0.000000 1.000000
vn 0.000000 -0.930484 0.366332
vn 0.000000 0.000000 -1.000000
vn 0.000000 0.000000 -1.000000
vn 0.000000 0.000000 -1.000000
vn 0.000000 0.000000 -1.000000
vn 0.000000 0.000000 -1.000000
vn 0.000000 0.000000 -1.000000
vn 0.000000 0.000000 -1.000000
vn 0.000000 0.000000 -1.000000
vn 0.000000 -0.783498 -0.621395
vn 0.000000 -0.783498 -0.621395
vn 0.000000 0.000000 -1.000000
vn 0.000000 -0.783498 -0.621395
vn 0.000000 -0.783498 -0.621395
vn 0.000000 -0.783498 -0.621395
vn 0.000000 0.605083 -0.796162
vn 0.000000 0.605083 -0.796162
vn 0.000000 -0.783498 -0.621395
vn 0.000000 0.605083 -0.796162
vn 0.000000 0.605083 -0.796162
vn 0.000000 0.605083 -0.796162
vn 0.000000 0.950605 -0.310402
vn 0.000000 0.950605 -0.310402
vn 0.000000 0.605083 -0.796162
vn 0.000000 0.950605 -0.310402
vn 0.000000 0.950605 -0.310402
vn 0.000000 0.950605 -0.310402
vn 0.000000 0.999958 0.009186
vn 0.000000 0.999958 0.009186
vn 0.000000 0.950605 -0.310402
vn 0.000000 0.999958 0.009186
vn 0.000000 0.999958 0.009186
vn 0.000000 0.999958 0.009186
vn -0.000130 0.998804 0.048902
vn -0.000130 0.998804 0.048902
vn 0.000000 0.999958 0.009186
vn -0.000130 0.998804 0.048902
vn -0.000130 0.998804 0.048902
vn -0.000130 0.998804 0.048902
vn 0.000000 0.984337 -0.176299
vn 0.000000 0.984337 -0.176299
vn -0.000130 0.998804 0.048902
vn 0.000000 0.984337 -0.176299
vn 0.000000 0.000000 1.000000
vn 0.000000 0.000000 1.000000
vn 0.000000 0.000000 1.000000
vn 0.000000 0.000000 1.000000
vn 0.000000 0.000000 1.000000
vn 0.000000 0.000000 1.000000
vn 0.000000 1.000000 0.000000
vn 0.000000 1.000000 0.000000
vn 0.000000 1.000000 0.000000
vn 0.000000 1.000000 0.000000
vn 0.000000 1.000000 0.000000
vn 0.000000 1.000000 0.000000
vn 0.000000 1.000000 0.000000
vn 0.000000 1.000000 0.000000
vn 0.000000 1.000000 0.000000
vn 0.000000 1.000000 0.000000
vn 0.000000 1.000000 0.000000
vn 0.000000 1.000000 0.000000
vn 0.000000 1.000000 0.000000
vn 0.000000 1.000000 0.000000
vn 0.000000 1.000000 0.000000
vn 0.000000 1.000000 0.000000
vn 0.000000 1.000000 0.000000
vn 0.000000 1.000000 0.000000
vn 0.000000 1.000000 0.000000
vn 0.000000 1.000000 0.000000
vn 0.000000 1.000000 0.000000
vn 0.000000 1.000000 0.000000
vn 0.000000 1.000000 0.000000
vn 0.000000 1.000000 0.000000
vn 0.000000 1.000000 0.000000
vn 0.000000 1.000000 0.000000
vn 0.000000 1.000000 0.000000
vn 0.000000 1.000000 0.000000
vn 0.000000 1.000000 0.000000
vn 0.000000 1.000000 0.000000
vn 0.839586 0.019418 0.542880
vn 0.839586 0.019418 0.542880
vn 0.931967 0.024608 0.361706
vn 0.931967 0.024608 0.361706
vn 0.839586 0.019418 0.542880
vn 0.860699 -0.022373 0.508623
vn 0.931967 0.024608 0.361706
vn 0.860699 -0.022373 0.508623
vn 0.990318 -0.012863 -0.138220
vn 0.990318 -0.012863 -0.138220
vn 0.860699 -0.022373 0.508623
vn 0.996212 -0.017176 0.085240
vn 0.990318 -0.012863 -0.138220
vn 0.996212 -0.017176 0.085240
vn 0.910469 -0.039891 -0.411649
vn 0.910469 -0.039891 -0.411649
vn 0.996212 -0.017176 0.085240
vn 0.931155 -0.025121 -0.363757
vn 0.910469 -0.039891 -0.411649
vn 0.931155 -0.025121 -0.363757
vn 0.955239 0.105616 -0.276338
vn 0.955239 0.105616 -0.276338
vn 0.931155 -0.025121 -0.363757
vn 0.922775 0.079070 -0.377141
vn 0.955239 0.105616 -0.276338
vn 0.922775 0.079070 -0.377141
vn 0.976318 0.130904 -0.172242
vn -0.976300 0.128465 -0.174171
vn -0.976300 0.128465 -0.174171
vn -0.908177 0.011546 -0.418428
vn -0.908177 0.011546 -0.418428
vn -0.976300 0.128465 -0.174171
vn -0.922902 0.077151 -0.377227
vn -0.908177 0.011546 -0.418428
vn -0.922902 0.077151 -0.377227
vn -0.932727 -0.018136 -0.360127
vn -0.932727 -0.018136 -0.360127
vn -0.922902 0.077151 -0.377227
vn -0.931155 -0.025121 -0.363757
vn -0.932727 -0.018136 -0.360127
vn -0.931155 -0.025121 -0.363757
vn -0.994267 0.028456 0.103074
vn -0.994267 0.028456 0.103074
vn -0.931155 -0.025121 -0.363757
vn -0.998951 -0.016023 0.042895
vn -0.994267 0.028456 0.103074
vn -0.998951 -0.016023 0.042895
vn -0.824783 -0.006201 0.565415
vn -0.824783 -0.006201 0.565415
vn -0.998951 -0.016023 0.042895
vn -0.841894 -0.040788 0.538099
vn -0.824783 -0.006201 0.565415
vn -0.841894 -0.040788 0.538099
vn -0.805829 0.028400 0.591467
vn -0.340137 0.151525 0.928088
vn -0.340137 0.151525 0.928088
vn -0.234615 0.137474 0.962319
vn -0.234615 0.137474 0.962319
vn -0.340137 0.151525 0.928088
vn -0.234615 0.137474 0.962319
vn -0.234615 0.137474 0.962319
vn -0.234615 0.137474 0.962319
vn 0.003154 0.161131 0.986928
vn 0.003154 0.161131 0.986928
vn -0.234615 0.137474 0.962319
vn 0.003154 0.161131 0.986928
vn 0.003154 0.161131 0.986928
vn 0.003154 0.161131 0.986928
vn 0.237688 0.137369 0.961579
vn 0.237688 0.137369 0.961579
vn 0.003154 0.161131 0.986928
vn 0.239095 0.137320 0.961237
vn 0.237688 0.137369 0.961579
vn 0.239095 0.137320 0.961237
vn 0.318389 0.152747 0.935573
vn 0.318389 0.152747 0.935573
vn 0.239095 0.137320 0.961237
vn 0.318389 0.152747 0.935573
vn 0.996390 0.000000 0.084890
vn 0.996390 0.000000 0.084890
vn 0.989691 0.000000 -0.143220
vn 0.989691 0.000000 -0.143220
vn 0.996390 0.000000 0.084890
vn 0.989691 0.000000 -0.143220
vn 0.989691 0.000000 -0.143220
vn 0.989691 0.000000 -0.143220
vn 0.928349 0.000000 -0.371709
vn 0.928349 0.000000 -0.371709
vn 0.989691 0.000000 -0.143220
vn 0.928349 0.000000 -0.371709
vn 0.928349 0.000000 -0.371709
vn 0.928349 0.000000 -0.371709
vn 0.925183 0.000000 -0.379521
vn 0.925183 0.000000 -0.379521
vn 0.928349 0.000000 -0.371709
vn 0.925183 0.000000 -0.379521
vn -0.925183 0.000000 -0.379521
vn -0.925183 0.000000 -0.379521
vn -0.928349 0.000000 -0.371709
vn -0.928349 0.000000 -0.371709
vn -0.925183 0.000000 -0.379521
vn -0.928349 0.000000 -0.371709
vn -0.928349 0.000000 -0.371709
vn -0.928349 0.000000 -0.371709
vn -0.986431 0.000000 -0.164178
vn -0.986431 0.000000 -0.164178
vn -0.928349 0.000000 -0.371709
vn -0.986431 0.000000 -0.164178
vn -0.986431 0.000000 -0.164178
vn -0.986431 0.000000 -0.164178
vn -0.999094 0.000000 0.042560
vn -0.999094 0.000000 0.042560
vn -0.986431 0.000000 -0.164178
vn -0.999094 0.000000 0.042560
vn 0.777941 0.000000 0.628337
vn 0.777941 0.000000 0.628337
vn 0.873449 0.000000 0.486915
vn 0.873449 0.000000 0.486915
vn 0.777941 0.000000 0.628337
vn 0.873449 0.000000 0.486915
vn 0.873449 0.000000 0.486915
vn 0.873449 0.000000 0.486915
vn 0.995442 0.000000 0.095369
vn 0.995442 0.000000 0.095369
vn 0.873449 0.000000 0.486915
vn 0.995442 0.000000 0.095369
vn 0.995442 0.000000 0.095369
vn 0.995442 0.000000 0.095369
vn 0.908502 0.000000 -0.417879
vn 0.908502 0.000000 -0.417879
vn 0.995442 0.000000 0.095369
vn 0.908502 0.000000 -0.417879
vn 0.908502 0.000000 -0.417879
vn 0.908502 0.000000 -0.417879
vn 0.622590 0.000000 -0.782548
vn 0.622590 0.000000 -0.782548
vn 0.908502 0.000000 -0.417879
vn 0.622590 0.000000 -0.782548
vn 0.622590 0.000000 -0.782548
vn 0.622590 0.000000 -0.782548
vn 0.242000 0.000000 -0.970276
vn 0.242000 0.000000 -0.970276
vn 0.622590 0.000000 -0.782548
vn 0.242000 0.000000 -0.970276
vn 0.242000 0.000000 -0.970276
vn 0.242000 0.000000 -0.970276
vn -0.242000 0.000000 -0.970276
vn -0.242000 0.000000 -0.970276
vn 0.242000 0.000000 -0.970276
vn -0.242000 0.000000 -0.970276
vn -0.242000 0.000000 -0.970276
vn -0.242000 0.000000 -0.970276
vn -0.622590 0.000000 -0.782548
vn -0.622590 0.000000 -0.782548
vn -0.242000 0.000000 -0.970276
vn -0.622590 0.000000 -0.782548
vn -0.622590 0.000000 -0.782548
vn -0.622590 0.000000 -0.782548
vn -0.908502 0.000000 -0.417879
vn -0.908502 0.000000 -0.417879
vn -0.622590 0.000000 -0.782548
vn -0.908502 0.000000 -0.417879
vn -0.908502 0.000000 -0.417879
vn -0.908502 0.000000 -0.417879
vn -0.995442 0.000000 0.095369
vn -0.995442 0.000000 0.095369
vn -0.908502 0.000000 -0.417879
vn -0.995442 0.000000 0.095369
vn -0.995442 0.000000 0.095369
vn -0.995442 0.000000 0.095369
vn -0.873449 0.000000 0.486915
vn -0.873449 0.000000 0.486915
vn -0.995442 0.000000 0.095369
vn -0.873449 0.000000 0.486915
vn -0.873449 0.000000 0.486915
vn -0.873449 0.000000 0.486915
vn -0.777941 0.000000 0.628337
vn -0.777941 0.000000 0.628337
vn -0.873449 0.000000 0.486915
vn -0.777941 0.000000 0.628337
vn -0.008268 -0.996275 0.085837
vn 0.000000 -0.994749 0.102340
vn 0.008443 -0.997072 0.075999
vn -0.008268 -0.996275 0.085837
vn 0.008443 -0.997072 0.075999
vn 0.013453 -0.998342 0.055963
vn -0.008268 -0.996275 0.085837
vn 0.013453 -0.998342 0.055963
vn -0.001825 -0.997118 0.075843
vn -0.008268 -0.996275 0.085837
vn -0.001825 -0.997118 0.075843
vn -0.034831 -0.994139 0.102349
vn -0.008268 -0.996275 0.085837
vn -0.034831 -0.994139 0.102349
vn -0.034831 -0.994139 0.102349
vn 0.015248 0.987172 -0.158932
vn 0.067682 0.980467 -0.184674
vn 0.043637 0.984638 -0.169066
vn 0.015248 0.987172 -0.158932
vn 0.043637 0.984638 -0.169066
vn 0.002352 0.991233 -0.132108
vn 0.015248 0.987172 -0.158932
vn 0.002352 0.991233 -0.132108
vn -0.022277 0.995139 -0.095928
vn 0.015248 0.987172 -0.158932
vn -0.022277 0.995139 -0.095928
vn 0.000000 0.982662 -0.185408
vn 0.015248 0.987172 -0.158932
vn 0.000000 0.982662 -0.185408
vn 0.000000 0.982662 -0.185408
vn 0.000000 -0.999996 0.002663
vn 0.000000 -0.999996 0.002663
vn 0.000000 -0.999996 0.002663
vn 0.000000 -0.999996 0.002663
vn 0.000000 -0.999996 0.002663
vn 0.000000 -0.999996 0.002663
vn 0.000000 -0.999996 0.002663
vn 0.000000 -0.999996 0.002663
vn 0.000000 -0.999996 0.002663
vn 0.000000 -0.999996 0.002663
vn 0.000000 -0.999996 0.002663
vn 0.000000 -0.999996 0.002663
vn 0.000000 -0.999996 0.002663
vn 0.000000 -0.999996 0.002663
vn 0.000000 -0.999996 0.002663
vn 0.000000 -0.999996 0.002663
vn 0.000000 -0.999996 0.002663
vn 0.000000 -0.999996 0.002663
vn 0.000000 -0.999996 0.002663
vn 0.000000 -0.999996 0.002663
vn 0.000000 -0.999996 0.002663
vn 0.000000 -0.999996 0.002663
vn 0.000000 -0.999996 0.002663
vn 0.000000 -0.999996 0.002663
vn 0.000000 -1.000000 0.000000
vn 0.000000 -1.000000 0.000000
vn 0.000000 -1.000000 0.000000
vn 0.000000 -1.000000 0.000000
vn 0.000000 -1.000000 0.000000
vn 0.000000 -1.000000 0.000000
vn 0.000000 -1.000000 0.000000
vn 0.000000 -1.000000 0.000000
vn 0.000000 -1.000000 0.000000
vn 0.000000 -1.000000 0.000000
vn 0.000000 -1.000000 0.000000
vn 0.000000 -1.000000 0.000000
vn 0.000000 -1.000000 0.000000
vn 0.000000 -1.000000 0.000000
vn 0.000000 -1.000000 0.000000
vn 0.000000 -1.000000 0.000000
vn 0.000000 -1.000000 0.000000
vn 0.000000 -1.000000 0.000000
vn 0.000000 -1.000000 0.000000
vn 0.000000 -1.000000 0.000000
vn 0.000000 -1.000000 0.000000
vn 0.000000 -1.000000 0.000000
vn 0.000000 -1.000000 0.000000
vn 0.000000 -1.000000 0.000000
vn 0.000000 -1.000000 0.000000
vn 0.000000 -1.000000 0.000000
vn 0.000000 -1.000000 0.000000
vn 0.000000 -1.000000 0.000000
vn 0.000000 -1.000000 0.000000
vn 0.000000 -1.000000 0.000000
vn 0.000000 -1.000000 0.000000
vn 0.000000 -1.000000 0.000000
vn 0.000000 -1.000000 0.000000
vn 0.000000 -1.000000 0.000000
vn 0.000000 -1.000000 0.000000
vn 0.000000 -1.000000 0.000000
f 205/205/205 206/206/206 207/207/207
f 208/208/208 209/209/209 210/210/210
f 211/211/211 212/212/212 213/213/213
f 214/214/214 215/215/215 216/216/216
f 217/217/217 218/218/218 219/219/219
f 220/220/220 221/221/221 222/222/222
f 223/223/223 224/224/224 225/225/225
f 226/226/226 227/227/227 228/228/228
f 229/229/229 230/230/230 231/231/231
f 232/232/232 233/233/233 234/234/234
f 235/235/235 236/236/236 237/237/237
f 238/238/238 239/239/239 240/240/240
f 241/241/241 242/242/242 243/243/243
f 244/244/244 245/245/245 246/246/246
f 247/247/247 248/248/248 249/249/249
f 250/250/250 251/251/251 252/252/252
f 253/253/253 254/254/254 255/255/255
f 256/256/256 257/257/257 258/258/258
f 259/259/259 260/260/260 261/261/261
f 262/262/262 263/263/263 264/264/264
f 265/265/265 266/266/266 267/267/267
f 268/268/268 269/269/269 270/270/270
f 271/271/271 272/272/272 273/273/273
f 274/274/274 275/275/275 276/276/276
f 277/277/277 278/278/278 279/279/279
f 280/280/280 281/281/281 282/282/282
f 283/283/283 284/284/284 285/285/285
f 286/286/286 287/287/287 288/288/288
f 289/289/289 290/290/290 291/291/291
f 292/292/292 293/293/293 294/294/294
f 295/295/295 296/296/296 297/297/297
f 298/298/298 299/299/299 300/300/300
f 301/301/301 302/302/302 303/303/303
f 304/304/304 305/305/305 306/306/306
f 307/307/307 308/308/308 309/309/309
f 310/310/310 311/311/311 312/312/312
f 313/313/313 314/314/314 315/315/315
f 316/316/316 317/317/317 318/318/318
f 319/319/319 320/320/320 321/321/321
f 322/322/322 323/323/323 324/324/324
f 325/325/325 326/326/326 327/327/327
f 328/328/328 329/329/329 330/330/330
f 331/331/331 332/332/332 333/333/333
f 334/334/334 335/335/335 336/336/336
f 337/337/337 338/338/338 339/339/339
f 340/340/340 341/341/341 342/342/342
f 343/343/343 344/344/344 345/345/345
f 346/346/346 347/347/347 348/348/348
f 349/349/349 350/350/350 351/351/351
f 352/352/352 353/353/353 354/354/354
f 355/355/355 356/356/356 357/357/357
f 358/358/358 359/359/359 360/360/360
f 361/361/361 362/362/362 363/363/363
f 364/364/364 365/365/365 366/366/366
f 367/367/367 368/368/368 369/369/369
f 370/370/370 371/371/371 372/372/372
f 373/373/373 374/374/374 375/375/375
f 376/376/376 377/377/377 378/378/378
f 379/379/379 380/380/380 381/381/381
f 382/382/382 383/383/383 384/384/384
f 385/385/385 386/386/386 387/387/387
f 388/388/388 389/389/389 390/390/390
f 391/391/391 392/392/392 393/393/393
f 394/394/394 395/395/395 396/396/396
f 397/397/397 398/398/398 399/399/399
f 400/400/400 401/401/401 402/402/402
f 403/403/403 404/404/404 405/405/405
f 406/406/406 407/407/407 408/408/408
f 409/409/409 410/410/410 411/411/411
f 412/412/412 413/413/413 414/414/414
f 415/415/415 416/416/416 417/417/417
f 418/418/418 419/419/419 420/420/420
f 421/421/421 422/422/422 423/423/423
f 424/424/424 425/425/425 426/426/426
f 427/427/427 428/428/428 429/429/429
f 430/430/430 431/431/431 432/432/432
f 433/433/433 434/434/434 435/435/435
f 436/436/436 437/437/437 438/438/438
f 439/439/439 440/440/440 441/441/441
f 442/442/442 443/443/443 444/444/444
f 445/445/445 446/446/446 447/447/447
f 448/448/448 449/449/449 450/450/450
f 451/451/451 452/452/452 453/453/453
f 454/454/454 455/455/455 456/456/456
f 457/457/457 458/458/458 459/459/459
f 460/460/460 461/461/461 462/462/462
f 463/463/463 464/464/464 465/465/465
f 466/466/466 467/467/467 468/468/468
f 469/469/469 470/470/470 471/471/471
f 472/472/472 473/473/473 474/474/474
f 475/475/475 476/476/476 477/477/477
f 478/478/478 479/479/479 480/480/480
f 481/481/481 482/482/482 483/483/483
f 484/484/484 485/485/485 486/486/486
f 487/487/487 488/488/488 489/489/489
f 490/490/490 491/491/491 492/492/492
f 493/493/493 494/494/494 495/495/495
f 496/496/496 497/497/497 498/498/498
f 499/499/499 500/500/500 501/501/501
f 502/502/502 503/503/503 504/504/504
f 505/505/505 506/506/506 507/507/507
f 508/508/508 509/509/509 510/510/510
f 511/511/511 512/512/512 513/513/513
f 514/514/514 515/515/515 516/516/516
f 517/517/517 518/518/518 519/519/519
f 520/520/520 521/521/521 522/522/522
f 523/523/523 524/524/524 525/525/525
f 526/526/526 527/527/527 528/528/528
f 529/529/529 530/530/530 531/531/531
f 532/532/532 533/533/533 534/534/534
f 535/535/535 536/536/536 537/537/537
f 538/538/538 539/539/539 540/540/540
f 541/541/541 542/542/542 543/543/543
f 544/544/544 545/545/545 546/546/546
f 547/547/547 548/548/548 549/549/549
f 550/550/550 551/551/551 552/552/552
f 553/553/553 554/554/554 555/555/555
f 556/556/556 557/557/557 558/558/558
f 559/559/559 560/560/560 561/561/561
f 562/562/562 563/563/563 564/564/564
f 565/565/565 566/566/566 567/567/567
f 568/568/568 569/569/569 570/570/570
f 571/571/571 572/572/572 573/573/573
f 574/574/574 575/575/575 576/576/576

o barrel
v 0.000000 1.410000 -4.940000
v -0.089000 1.440000 -4.940000
v -0.126000 1.530000 -4.940000
v 0.000000 1.410000 -4.940000
v -0.126000 1.530000 -4.940000
v -0.089000 1.620000 -4.940000
v 0.000000 1.410000 -4.940000
v -0.089000 1.620000 -4.940000
v 0.000000 1.660000 -4.940000
v 0.000000 1.410000 -4.940000
v 0.000000 1.660000 -4.940000
v 0.090000 1.620000 -4.940000
v 0.000000 1.410000 -4.940000
v 0.090000 1.620000 -4.940000
v 0.126000 1.530000 -4.940000
v 0.000000 1.410000 -4.940000
v 0.126000 1.530000 -4.940000
v 0.090000 1.440000 -4.940000
v 0.180000 1.530000 -1.570000
v 0.126000 1.530000 -4.940000
v 0.128000 1.660000 -1.570000
v 0.128000 1.660000 -1.570000
v 0.126000 1.530000 -4.940000
v 0.090000 1.620000 -4.940000
v 0.128000 1.660000 -1.570000
v 0.090000 1.620000 -4.940000
v 0.000000 1.710000 -1.570000
v 0.000000 1.710000 -1.570000
v 0.090000 1.620000 -4.940000
v 0.000000 1.660000 -4.940000
v 0.000000 1.710000 -1.570000
v 0.000000 1.660000 -4.940000
v -0.126000 1.660000 -1.570000
v -0.126000 1.660000 -1.570000
v 0.000000 1.660000 -4.940000
v -0.089000 1.620000 -4.940000
v -0.126000 1.660000 -1.570000
v -0.089000 1.620000 -4.940000
v -0.180000 1.530000 -1.570000
v -0.180000 1.530000 -1.570000
v -0.089000 1.620000 -4.940000
v -0.126000 1.530000 -4.940000
v -0.180000 1.530000 -1.570000
v -0.126000 1.530000 -4.940000
v -0.126000 1.400000 -1.570000
v -0.126000 1.400000 -1.570000
v -0.126000 1.530000 -4.940000
v -0.089000 1.440000 -4.940000
v -0.126000 1.400000 -1.570000
v -0.089000 1.440000 -4.940000
v 0.000000 1.350000 -1.570000
v 0.000000 1.350000 -1.570000
v -0.089000 1.440000 -4.940000
v 0.000000 1.410000 -4.940000
v 0.000000 1.350000 -1.570000
v 0.000000 1.410000 -4.940000
v 0.128000 1.400000 -1.570000
v 0.128000 1.400000 -1.570000
v 0.000000 1.410000 -4.940000
v 0.090000 1.440000 -4.940000
v 0.128000 1.400000 -1.570000
v 0.090000 1.440000 -4.940000
v 0.180000 1.530000 -1.570000
v 0.180000 1.530000 -1.570000
v 0.090000 1.440000 -4.940000
v 0.126000 1.530000 -4.940000
v 0.000500 1.530000 -1.570000
v 0.180000 1.530000 -1.570000
v 0.128000 1.660000 -1.570000
v 0.000500 1.530000 -1.570000
v 0.128000 1.400000 -1.570000
v 0.180000 1.530000 -1.570000
v 0.000500 1.530000 -1.570000
v 0.000000 1.350000 -1.570000
v 0.128000 1.400000 -1.570000
v 0.000500 1.530000 -1.570000
v -0.126000 1.400000 -1.570000
v 0.000000 1.350000 -1.570000
v 0.000500 1.530000 -1.570000
v -0.180000 1.530000 -1.570000
v -0.126000 1.400000 -1.570000
v 0.000500 1.530000 -1.570000
v -0.126000 1.660000 -1.570000
v -0.180000 1.530000 -1.570000
v 0.000500 1.530000 -1.570000
v 0.000000 1.710000 -1.570000
v -0.126000 1.660000 -1.570000
v 0.000500 1.530000 -1.570000
v 0.128000 1.660000 -1.570000
v 0.000000 1.710000 -1.570000
vn 0.000000 0.000000 -1.000000
vn 0.000000 0.000000 -1.000000
vn 0.000000 0.000000 -1.000000
vn 0.000000 0.000000 -1.000000
vn 0.000000 0.000000 -1.000000
vn 0.000000 0.000000 -1.000000
vn 0.000000 0.000000 -1.000000
vn 0.000000 0.000000 -1.000000
vn 0.000000 0.000000 -1.000000
vn 0.000000 0.000000 -1.000000
vn 0.000000 0.000000 -1.000000
vn 0.000000 0.000000 -1.000000
vn 0.000000 0.000000 -1.000000
vn 0.000000 0.000000 -1.000000
vn 0.000000 0.000000 -1.000000
vn 0.000000 0.000000 -1.000000
vn 0.000000 0.000000 -1.000000
vn 0.000000 0.000000 -1.000000
vn 0.999874 0.000000 -0.015873
vn 0.999874 0.000000 -0.015873
vn 0.704331 0.709682 -0.016407
vn 0.704331 0.709682 -0.016407
vn 0.999874 0.000000 -0.015873
vn 0.718536 0.695296 -0.016398
vn 0.704331 0.709682 -0.016407
vn 0.718536 0.695296 -0.016398
vn 0.000267 0.999890 -0.014835
vn 0.000267 0.999890 -0.014835
vn 0.718536 0.695296 -0.016398
vn 0.000267 0.999890 -0.014835
vn 0.000267 0.999890 -0.014835
vn 0.000267 0.999890 -0.014835
vn -0.702262 0.711730 -0.016367
vn -0.702262 0.711730 -0.016367
vn 0.000267 0.999890 -0.014835
vn -0.717625 0.696238 -0.016356
vn -0.702262 0.711730 -0.016367
vn -0.717625 0.696238 -0.016356
vn -0.999872 0.000000 -0.016022
vn -0.999872 0.000000 -0.016022
vn -0.717625 0.696238 -0.016356
vn -0.999872 0.000000 -0.016022
vn -0.999872 0.000000 -0.016022
vn -0.999872 0.000000 -0.016022
vn -0.702262 -0.711730 -0.016367
vn -0.702262 -0.711730 -0.016367
vn -0.999872 0.000000 -0.016022
vn -0.683073 -0.730167 -0.016369
vn -0.702262 -0.711730 -0.016367
vn -0.683073 -0.730167 -0.016369
vn 0.000267 -0.999841 -0.017801
vn 0.000267 -0.999841 -0.017801
vn -0.683073 -0.730167 -0.016369
vn 0.000267 -0.999841 -0.017801
vn 0.000267 -0.999841 -0.017801
vn 0.000267 -0.999841 -0.017801
vn 0.704331 -0.709683 -0.016407
vn 0.704331 -0.709683 -0.016407
vn 0.000267 -0.999841 -0.017801
vn 0.683912 -0.729379 -0.016410
vn 0.704331 -0.709683 -0.016407
vn 0.683912 -0.729379 -0.016410
vn 0.999874 0.000000 -0.015873
vn 0.999874 0.000000 -0.015873
vn 0.683912 -0.729379 -0.016410
vn 0.999874 0.000000 -0.015873
vn -0.000000 0.000000 1.000000
vn -0.000000 0.000000 1.000000
vn -0.000000 0.000000 1.000000
vn -0.000000 0.000000 1.000000
vn -0.000000 0.000000 1.000000
vn -0.000000 0.000000 1.000000
vn -0.000000 0.000000 1.000000
vn -0.000000 0.000000 1.000000
vn -0.000000 0.000000 1.000000
vn -0.000000 0.000000 1.000000
vn -0.000000 0.000000 1.000000
vn -0.000000 0.000000 1.000000
vn -0.000000 0.000000 1.000000
vn -0.000000 0.000000 1.000000
vn -0.000000 0.000000 1.000000
vn -0.000000 0.000000 1.000000
vn -0.000000 0.000000 1.000000
vn -0.000000 0.000000 1.000000
vn -0.000000 0.000000 1.000000
vn -0.000000 0.000000 1.000000
vn -0.000000 0.000000 1.000000
vn -0.000000 0.000000 1.000000
vn -0.000000 0.000000 1.000000
vn -0.000000 0.000000 1.000000
f 577//577 578//578 579//579
f 580//580 581//581 582//582
f 583//583 584//584 585//585
f 586//586 587//587 588//588
f 589//589 590//590 591//591
f 592//592 593//593 594//594
f 595//595 596//596 597//597
f 598//598 599//599 600//600
f 601//601 602//602 603//603
f 604//604 605//605 606//606
f 607//607 608//608 609//609
f 610//610 611//611 612//612
f 613//613 614//614 615//615
f 616//616 617//617 618//618
f 619//619 620//620 621//621
f 622//622 623//623 624//624
f 625//625 626//626 627//627
f 628//628 629//629 630//630
f 631//631 632//632 633//633
f 634//634 635//635 636//636
f 637//637 638//638 639//639
f 640//640 641//641 642//642
f 643//643 644//644 645//645
f 646//646 647//647 648//648
f 649//649 650//650 651//651
f 652//652 653//653 654//654
f 655//655 656//656 657//657
f 658//658 659//659 660//660
f 661//661 662//662 663//663
f 664//664 665//665 666//666

o ltread
v -0.877000 0.770000 -3.000000
v -1.400000 0.770000 -3.000000
v -0.877000 0.883000 -2.980000
v -0.877000 0.883000 -2.980000
v -1.400000 0.770000 -3.000000
v -1.400000 0.883000 -2.980000
v -0.877000 0.883000 -2.980000
v -1.400000 0.883000 -2.980000
v -0.877000 0.956000 -2.860000
v -0.877000 0.956000 -2.860000
v -1.400000 0.883000 -2.980000
v -1.400000 0.956000 -2.860000
v -0.877000 0.956000 -2.860000
v -1.400000 0.956000 -2.860000
v -0.877000 1.080000 -2.750000
v -0.877000 1.080000 -2.750000
v -1.400000 0.956000 -2.860000
v -1.400000 1.080000 -2.750000
v -0.877000 1.080000 -2.750000
v -1.400000 1.080000 -2.750000
v -0.877000 1.100000 -2.350000
v -0.877000 1.100000 -2.350000
v -1.400000 1.080000 -2.750000
v -1.400000 1.100000 -2.350000
v -0.877000 1.100000 -2.350000
v -1.400000 1.100000 -2.350000
v -0.877000 1.310000 -1.940000
v -0.877000 1.310000 -1.940000
v -1.400000 1.100000 -2.350000
v -1.400000 1.310000 -1.940000
v -0.877000 1.310000 -1.940000
v -1.400000 1.310000 -1.940000
v -0.877000 1.320000 1.020000
v -0.877000 1.320000 1.020000
v -1.400000 1.310000 -1.940000
v -1.400000 1.320000 1.020000
v -0.877000 1.320000 1.020000
v -1.400000 1.320000 1.020000
v -0.877000 1.400000 1.460000
v -0.877000 1.400000 1.460000
v -1.400000 1.320000 1.020000
v -1.400000 1.400000 1.460000
v -0.877000 1.400000 1.460000
v -1.400000 1.400000 1.460000
v -0.877000 1.410000 2.970000
v -0.877000 1.410000 2.970000
v -1.400000 1.400000 1.460000
v -1.400000 1.410000 2.970000
v -0.877000 1.410000 2.970000
v -1.400000 1.410000 2.970000
v -0.877000 0.528000 2.740000
v -0.877000 0.528000 2.740000
v -1.400000 1.410000 2.970000
v -1.400000 0.528000 2.740000
v -0.877000 0.528000 2.740000
v -1.400000 0.528000 2.740000
v -0.877000 0.000000 1.620000
v -0.877000 0.000000 1.620000
v -1.400000 0.528000 2.740000
v -1.400000 0.000000 1.620000
v -0.877000 0.000000 1.620000
v -1.400000 0.000000 1.620000
v -0.877000 0.000000 -1.990000
v -0.877000 0.000000 -1.990000
v -1.400000 0.000000 1.620000
v -1.400000 0.000000 -1.990000
v -0.877000 0.000000 -1.990000
v -1.400000 0.000000 -1.990000
v -0.877000 0.408000 -2.790000
v -0.877000 0.408000 -2.790000
v -1.400000 0.000000 -1.990000
v -1.400000 0.408000 -2.790000
v -0.877000 0.408000 -2.790000
v -1.400000 0.408000 -2.790000
v -0.877000 0.739000 -2.860000
v -0.877000 0.739000 -2.860000
v -1.400000 0.408000 -2.790000
v -1.400000 0.739000 -2.860000
v -0.877000 0.739000 -2.860000
v -1.400000 0.739000 -2.860000
v -0.877000 0.770000 -3.000000
v -0.877000 0.770000 -3.000000
v -1.400000 0.739000 -2.860000
v -1.400000 0.770000 -3.000000
v -0.877000 0.528000 2.740000
v -0.877000 0.000000 1.620000
v -0.877000 1.320000 1.020000
v -0.877000 0.528000 2.740000
v -0.877000 1.320000 1.020000
v -0.877000 1.400000 1.460000
v -0.877000 0.528000 2.740000
v -0.877000 1.400000 1.460000
v -0.877000 1.410000 2.970000
v -0.877000 0.000000 -1.990000
v -0.877000 0.408000 -2.790000
v -0.877000 0.739000 -2.860000
v -0.877000 0.000000 -1.990000
v -0.877000 0.739000 -2.860000
v -0.877000 1.080000 -2.750000
v -0.877000 0.000000 -1.990000
v -0.877000 1.080000 -2.750000
v -0.877000 1.100000 -2.350000
v -0.877000 0.000000 -1.990000
v -0.877000 1.100000 -2.350000
v -0.877000 1.310000 -1.940000
v -0.877000 0.000000 -1.990000
v -0.877000 1.310000 -1.940000
v -0.877000 1.320000 1.020000
v -0.877000 0.000000 -1.990000
v -0.877000 1.320000 1.020000
v -0.877000 0.000000 1.620000
v -0.877000 0.739000 -2.860000
v -0.877000 0.770000 -3.000000
v -0.877000 0.883000 -2.980000
v -0.877000 0.739000 -2.860000
v -0.877000 0.883000 -2.980000
v -0.877000 0.956000 -2.860000
v -0.877000 0.739000 -2.860000
v -0.877000 0.956000 -2.860000
v -0.877000 1.080000 -2.750000
v -1.400000 0.528000 2.740000
v -1.400000 1.410000 2.970000
v -1.400000 1.400000 1.460000
v -1.400000 0.528000 2.740000
v -1.400000 1.400000 1.460000
v -1.400000 1.320000 1.020000
v -1.400000 0.528000 2.740000
v -1.400000 1.320000 1.020000
v -1.400000 0.000000 1.620000
v -1.400000 0.000000 -1.990000
v -1.400000 0.000000 1.620000
v -1.400000 1.320000 1.020000
v -1.400000 0.000000 -1.990000
v -1.400000 1.320000 1.020000
v -1.400000 1.310000 -1.940000
v -1.400000 0.000000 -1.990000
v -1.400000 1.310000 -1.940000
v -1.400000 1.100000 -2.350000
v -1.400000 0.000000 -1.990000
v -1.400000 1.100000 -2.350000
v -1.400000 1.080000 -2.750000
v -1.400000 0.000000 -1.990000
v -1.400000 1.080000 -2.750000
v -1.400000 0.739000 -2.860000
v -1.400000 0.000000 -1.990000
v -1.400000 0.739000 -2.860000
v -1.400000 0.408000 -2.790000
v -1.400000 0.739000 -2.860000
v -1.400000 1.080000 -2.750000
v -1.400000 0.956000 -2.860000
v -1.400000 0.739000 -2.860000
v -1.400000 0.956000 -2.860000
v -1.400000 0.883000 -2.980000
v -1.400000 0.739000 -2.860000
v -1.400000 0.883000 -2.980000
v -1.400000 0.770000 -3.000000
vt 1.000000 1.863304
vt 0.000000 1.863304
vt 1.000000 1.828653
vt 1.000000 1.828653
vt 0.000000 1.863304
vt 0.000000 1.828653
vt 1.000000 1.828653
vt 0.000000 1.828653
vt 1.000000 1.795625
vt 1.000000 1.795625
vt 0.000000 1.828653
vt 0.000000 1.795625
vt 1.000000 1.795625
vt 0.000000 1.795625
vt 1.000000 1.737211
vt 1.000000 1.737211
vt 0.000000 1.795625
vt 0.000000 1.737211
vt 1.000000 1.737211
vt 0.000000 1.737211
vt 1.000000 1.691790
vt 1.000000 1.691790
vt 0.000000 1.737211
vt 0.000000 1.691790
vt 1.000000 1.691790
vt 0.000000 1.691790
vt 1.000000 1.482960
vt 1.000000 1.482960
vt 0.000000 1.691790
vt 0.000000 1.482960
vt 1.000000 1.482960
vt 0.000000 1.482960
vt 1.000000 0.466936
vt 1.000000 0.466936
vt 0.000000 1.482960
vt 0.000000 0.466936
vt 1.000000 0.466936
vt 0.000000 0.466936
vt 1.000000 0.455959
vt 1.000000 0.455959
vt 0.000000 0.466936
vt 0.000000 0.455959
vt 1.000000 0.455959
vt 0.000000 0.455959
vt 1.000000 0.000000
vt 1.000000 0.000000
vt 0.000000 0.455959
vt 0.000000 0.000000
vt 1.000000 0.000000
vt 0.000000 0.000000
vt 1.000000 3.724771
vt 1.000000 3.724771
vt 0.000000 0.000000
vt 0.000000 3.724771
vt 1.000000 3.724771
vt 0.000000 3.724771
vt 1.000000 3.350887
vt 1.000000 3.350887
vt 0.000000 3.724771
vt 0.000000 3.350887
vt 1.000000 3.350887
vt 0.000000 3.350887
vt 1.000000 2.260836
vt 1.000000 2.260836
vt 0.000000 3.350887
vt 0.000000 2.260836
vt 1.000000 2.260836
vt 0.000000 2.260836
vt 1.000000 1.989672
vt 1.000000 1.989672
vt 0.000000 2.260836
vt 0.000000 1.989672
vt 1.000000 1.989672
vt 0.000000 1.989672
vt 1.000000 1.874045
vt 1.000000 1.874045
vt 0.000000 1.989672
vt 0.000000 1.874045
vt 1.000000 1.874045
vt 0.000000 1.874045
vt 1.000000 1.863304
vt 1.000000 1.863304
vt 0.000000 1.874045
vt 0.000000 1.863304
vt 0.158084 0.820359
vt 0.000000 0.485030
vt 0.395210 0.305389
vt 0.158084 0.820359
vt 0.395210 0.305389
vt 0.419162 0.437126
vt 0.158084 0.820359
vt 0.419162 0.437126
vt 0.422156 0.889222
vt 0.000000 -0.595808
vt 0.122156 -0.835329
vt 0.221257 -0.856287
vt 0.000000 -0.595808
vt 0.221257 -0.856287
vt 0.323353 -0.823353
vt 0.000000 -0.595808
vt 0.323353 -0.823353
vt 0.329341 -0.703593
vt 0.000000 -0.595808
vt 0.329341 -0.703593
vt 0.392216 -0.580838
vt 0.000000 -0.595808
vt 0.392216 -0.580838
vt 0.395210 0.305389
vt 0.000000 -0.595808
vt 0.395210 0.305389
vt 0.000000 0.485030
vt 0.221257 -0.856287
vt 0.230539 -0.898204
vt 0.264371 -0.892216
vt 0.221257 -0.856287
vt 0.264371 -0.892216
vt 0.286228 -0.856287
vt 0.221257 -0.856287
vt 0.286228 -0.856287
vt 0.323353 -0.823353
vt 0.158084 0.820359
vt 0.422156 0.889222
vt 0.419162 0.437126
vt 0.158084 0.820359
vt 0.419162 0.437126
vt 0.395210 0.305389
vt 0.158084 0.820359
vt 0.395210 0.305389
vt 0.000000 0.485030
vt 0.000000 -0.595808
vt 0.000000 0.485030
vt 0.395210 0.305389
vt 0.000000 -0.595808
vt 0.395210 0.305389
vt 0.392216 -0.580838
vt 0.000000 -0.595808
vt 0.392216 -0.580838
vt 0.329341 -0.703593
vt 0.000000 -0.595808
vt 0.329341 -0.703593
vt 0.323353 -0.823353
vt 0.000000 -0.595808
vt 0.323353 -0.823353
vt 0.221257 -0.856287
vt 0.000000 -0.595808
vt 0.221257 -0.856287
vt 0.122156 -0.835329
vt 0.221257 -0.856287
vt 0.323353 -0.823353
vt 0.286228 -0.856287
vt 0.221257 -0.856287
vt 0.286228 -0.856287
vt 0.264371 -0.892216
vt 0.221257 -0.856287
vt 0.264371 -0.892216
vt 0.230539 -0.898204
vn 0.000000 0.174282 -0.984696
vn 0.000000 0.174282 -0.984696
vn 0.000000 0.174282 -0.984696
vn 0.000000 0.174282 -0.984696
vn 0.000000 0.174282 -0.984696
vn 0.000000 0.174282 -0.984696
vn 0.000000 0.174282 -0.984696
vn 0.000000 0.174282 -0.984696
vn 0.000000 0.854336 -0.519720
vn 0.000000 0.854336 -0.519720
vn 0.000000 0.174282 -0.984696
vn 0.000000 0.854336 -0.519720
vn 0.000000 0.854336 -0.519720
vn 0.000000 0.854336 -0.519720
vn 0.000000 0.663614 -0.748075
vn 0.000000 0.663614 -0.748075
vn 0.000000 0.854336 -0.519720
vn 0.000000 0.663614 -0.748075
vn 0.000000 0.663614 -0.748075
vn 0.000000 0.663614 -0.748075
vn 0.000000 0.998752 -0.049938
vn 0.000000 0.998752 -0.049938
vn 0.000000 0.663614 -0.748075
vn 0.000000 0.998752 -0.049938
vn 0.000000 0.998752 -0.049938
vn 0.000000 0.998752 -0.049938
vn 0.000000 0.890043 -0.455876
vn 0.000000 0.890043 -0.455876
vn 0.000000 0.998752 -0.049938
vn 0.000000 0.890043 -0.455876
vn 0.000000 0.890043 -0.455876
vn 0.000000 0.890043 -0.455876
vn 0.000000 0.999994 -0.003378
vn 0.000000 0.999994 -0.003378
vn 0.000000 0.890043 -0.455876
vn 0.000000 0.999994 -0.003378
vn 0.000000 0.999994 -0.003378
vn 0.000000 0.999994 -0.003378
vn 0.000000 0.983870 -0.178885
vn 0.000000 0.983870 -0.178885
vn 0.000000 0.999994 -0.003378
vn 0.000000 0.983870 -0.178885
vn 0.000000 0.983870 -0.178885
vn 0.000000 0.983870 -0.178885
vn 0.000000 0.999978 -0.006622
vn 0.000000 0.999978 -0.006622
vn 0.000000 0.983870 -0.178885
vn 0.000000 0.999978 -0.006622
vn 0.000000 0.999978 -0.006622
vn 0.000000 0.999978 -0.006622
vn 0.000000 -0.252333 0.967641
vn 0.000000 -0.252333 0.967641
vn 0.000000 0.999978 -0.006622
vn 0.000000 -0.252333 0.967641
vn 0.000000 -0.252333 0.967641
vn 0.000000 -0.252333 0.967641
vn 0.000000 -0.904526 0.426419
vn 0.000000 -0.904526 0.426419
vn 0.000000 -0.252333 0.967641
vn 0.000000 -0.904526 0.426419
vn 0.000000 -0.904526 0.426419
vn 0.000000 -0.904526 0.426419
vn 0.000000 -1.000000 0.000000
vn 0.000000 -1.000000 0.000000
vn 0.000000 -0.904526 0.426419
vn 0.000000 -1.000000 0.000000
vn 0.000000 -1.000000 0.000000
vn 0.000000 -1.000000 0.000000
vn 0.000000 -0.890835 -0.454326
vn 0.000000 -0.890835 -0.454326
vn 0.000000 -1.000000 0.000000
vn 0.000000 -0.890835 -0.454326
vn 0.000000 -0.890835 -0.454326
vn 0.000000 -0.890835 -0.454326
vn 0.000000 -0.206904 -0.978361
vn 0.000000 -0.206904 -0.978361
vn 0.000000 -0.890835 -0.454326
vn 0.000000 -0.206904 -0.978361
vn 0.000000 -0.206904 -0.978361
vn 0.000000 -0.206904 -0.978361
vn 0.000000 -0.976351 -0.216192
vn 0.000000 -0.976351 -0.216192
vn 0.000000 -0.206904 -0.978361
vn 0.000000 -0.976351 -0.216192
vn 1.000000 0.000000 0.000000
vn 1.000000 0.000000 0.000000
vn 1.000000 0.000000 0.000000
vn 1.000000 0.000000 0.000000
vn 1.000000 0.000000 0.000000
vn 1.000000 0.000000 0.000000
vn 1.000000 0.000000 0.000000
vn 1.000000 0.000000 0.000000
vn 1.000000 0.000000 0.000000
vn 1.000000 0.000000 0.000000
vn 1.000000 0.000000 0.000000
vn 1.000000 0.000000 0.000000
vn 1.000000 0.000000 0.000000
vn 1.000000 0.000000 0.000000
vn 1.000000 0.000000 0.000000
vn 1.000000 0.000000 0.000000
vn 1.000000 0.000000 0.000000
vn 1.000000 0.000000 0.000000
vn 1.000000 0.000000 0.000000
vn 1.000000 0.000000 0.000000
vn 1.000000 0.000000 0.000000
vn 1.000000 0.000000 0.000000
vn 1.000000 0.000000 0.000000
vn 1.000000 0.000000 0.000000
vn 1.000000 0.000000 0.000000
vn 1.000000 0.000000 0.000000
vn 1.000000 0.000000 0.000000
vn 1.000000 0.000000 0.000000
vn 1.000000 0.000000 0.000000
vn 1.000000 0.000000 0.000000
vn 1.000000 0.000000 0.000000
vn 1.000000 0.000000 0.000000
vn 1.000000 0.000000 0.000000
vn 1.000000 0.000000 0.000000
vn 1.000000 0.000000 0.000000
vn 1.000000 0.000000 0.000000
vn -1.000000 0.000000 0.000000
vn -1.000000 0.000000 0.000000
vn -1.000000 0.000000 0.000000
vn -1.000000 0.000000 0.000000
vn -1.000000 0.000000 0.000000
vn -1.000000 0.000000 0.000000
vn -1.000000 0.000000 0.000000
vn -1.000000 0.000000 0.000000
vn -1.000000 0.000000 0.000000
vn -1.000000 0.000000 0.000000
vn -1.000000 0.000000 0.000000
vn -1.000000 0.000000 0.000000
vn -1.000000 0.000000 0.000000
vn -1.000000 0.000000 0.000000
vn -1.000000 0.000000 0.000000
vn -1.000000 0.000000 0.000000
vn -1.000000 0.000000 0.000000
vn -1.000000 0.000000 0.000000
vn -1.000000 0.000000 0.000000
vn -1.000000 0.000000 0.000000
vn -1.000000 0.000000 0.000000
vn -1.000000 0.000000 0.000000
vn -1.000000 0.000000 0.000000
vn -1.000000 0.000000 0.000000
vn -1.000000 0.000000 0.000000
vn -1.000000 0.000000 0.000000
vn -1.000000 0.000000 0.000000
vn -1.000000 0.000000 0.000000
vn -1.000000 0.000000 0.000000
vn -1.000000 0.000000 0.000000
vn -1.000000 0.000000 0.000000
vn -1.000000 0.000000 0.000000
vn -1.000000 0.000000 0.000000
vn -1.000000 0.000000 0.000000
vn -1.000000 0.000000 0.000000
vn -1.000000 0.000000 0.000000
usemtl tread
f 667/577/667 668/578/668 669/579/669
f 670/580/670 671/581/671 672/582/672
f 673/583/673 674/584/674 675/585/675
f 676/586/676 677/587/677 678/588/678
f 679/589/679 680/590/680 681/591/681
f 682/592/682 683/593/683 684/594/684
f 685/595/685 686/596/686 687/597/687
f 688/598/688 689/599/689 690/600/690
f 691/601/691 692/602/692 693/603/693
f 694/604/694 695/605/695 696/606/696
f 697/607/697 698/608/698 699/609/699
f 700/610/700 701/611/701 702/612/702
f 703/613/703 704/614/704 705/615/705
f 706/616/706 707/617/707 708/618/708
f 709/619/709 710/620/710 711/621/711
f 712/622/712 713/623/713 714/624/714
f 715/625/715 716/626/716 717/627/717
f 718/628/718 719/629/719 720/630/720
f 721/631/721 722/632/722 723/633/723
f 724/634/724 725/635/725 726/636/726
f 727/637/727 728/638/728 729/639/729
f 730/640/730 731/641/731 732/642/732
f 733/643/733 734/644/734 735/645/735
f 736/646/736 737/647/737 738/648/738
f 739/649/739 740/650/740 741/651/741
f 742/652/742 743/653/743 744/654/744
f 745/655/745 746/656/746 747/657/747
f 748/658/748 749/659/749 750/660/750
usemtl treadSide
f 751/661/751 752/662/752 753/663/753
f 754/664/754 755/665/755 756/666/756
f 757/667/757 758/668/758 759/669/759
f 760/670/760 761/671/761 762/672/762
f 763/673/763 764/674/764 765/675/765
f 766/676/766 767/677/767 768/678/768
f 769/679/769 770/680/770 771/681/771
f 772/682/772 773/683/773 774/684/774
f 775/685/775 776/686/776 777/687/777
f 778/688/778 779/689/779 780/690/780
f 781/691/781 782/692/782 783/693/783
f 784/694/784 785/695/785 786/696/786
f 787/697/787 788/698/788 789/699/789
f 790/700/790 791/701/791 792/702/792
f 793/703/793 794/704/794 795/705/795
f 796/706/796 797/707/797 798/708/798
f 799/709/799 800/710/800 801/711/801
f 802/712/802 803/713/803 804/714/804
f 805/715/805 806/716/806 807/717/807
f 808/718/808 809/719/809 810/720/810
f 811/721/811 812/722/812 813/723/813
f 814/724/814 815/725/815 816/726/816
f 817/727/817 818/728/818 819/729/819
f 820/730/820 821/731/821 822/732/822

o rtread
v 1.400000 0.770000 -3.000000
v 0.875000 0.770000 -3.000000
v 1.400000 0.883000 -2.980000
v 1.400000 0.883000 -2.980000
v 0.875000 0.770000 -3.000000
v 0.875000 0.883000 -2.980000
v 1.400000 0.883000 -2.980000
v 0.875000 0.883000 -2.980000
v 1.400000 0.956000 -2.860000
v 1.400000 0.956000 -2.860000
v 0.875000 0.883000 -2.980000
v 0.875000 0.956000 -2.860000
v 1.400000 0.956000 -2.860000
v 0.875000 0.956000 -2.860000
v 1.400000 1.080000 -2.750000
v 1.400000 1.080000 -2.750000
v 0.875000 0.956000 -2.860000
v 0.875000 1.080000 -2.750000
v 1.400000 1.080000 -2.750000
v 0.875000 1.080000 -2.750000
v 1.400000 1.100000 -2.350000
v 1.400000 1.100000 -2.350000
v 0.875000 1.080000 -2.750000
v 0.875000 1.100000 -2.350000
v 1.400000 1.100000 -2.350000
v 0.875000 1.100000 -2.350000
v 1.400000 1.310000 -1.940000
v 1.400000 1.310000 -1.940000
v 0.875000 1.100000 -2.350000
v 0.875000 1.310000 -1.940000
v 1.400000 1.310000 -1.940000
v 0.875000 1.310000 -1.940000
v 1.400000 1.320000 1.020000
v 1.400000 1.320000 1.020000
v 0.875000 1.310000 -1.940000
v 0.875000 1.320000 1.020000
v 1.400000 1.320000 1.020000
v 0.875000 1.320000 1.020000
v 1.400000 1.400000 1.460000
v 1.400000 1.400000 1.460000
v 0.875000 1.320000 1.020000
v 0.875000 1.400000 1.460000
v 1.400000 1.400000 1.460000
v 0.875000 1.400000 1.460000
v 1.400000 1.410000 2.970000
v 1.400000 1.410000 2.970000
v 0.875000 1.400000 1.460000
v 0.875000 1.410000 2.970000
v 1.400000 1.410000 2.970000
v 0.875000 1.410000 2.970000
v 1.400000 0.528000 2.740000
v 1.400000 0.528000 2.740000
v 0.875000 1.410000 2.970000
v 0.875000 0.528000 2.740000
v 1.400000 0.528000 2.740000
v 0.875000 0.528000 2.740000
v 1.400000 0.000000 1.620000
v 1.400000 0.000000 1.620000
v 0.875000 0.528000 2.740000
v 0.875000 0.000000 1.620000
v 1.400000 0.000000 1.620000
v 0.875000 0.000000 1.620000
v 1.400000 0.000000 -1.990000
v 1.400000 0.000000 -1.990000
v 0.875000 0.000000 1.620000
v 0.875000 0.000000 -1.990000
v 1.400000 0.000000 -1.990000
v 0.875000 0.000000 -1.990000
v 1.400000 0.408000 -2.790000
v 1.400000 0.408000 -2.790000
v 0.875000 0.000000 -1.990000
v 0.875000 0.408000 -2.790000
v 1.400000 0.408000 -2.790000
v 0.875000 0.408000 -2.790000
v 1.400000 0.739000 -2.860000
v 1.400000 0.739000 -2.860000
v 0.875000 0.408000 -2.790000
v 0.875000 0.739000 -2.860000
v 1.400000 0.739000 -2.860000
v 0.875000 0.739000 -2.860000
v 1.400000 0.770000 -3.000000
v 1.400000 0.770000 -3.000000
v 0.875000 0.739000 -2.860000
v 0.875000 0.770000 -3.000000
v 1.400000 0.528000 2.740000
v 1.400000 0.000000 1.620000
v 1.400000 1.320000 1.020000
v 1.400000 0.528000 2.740000
v 1.400000 1.320000 1.020000
v 1.400000 1.400000 1.460000
v 1.400000 0.528000 2.740000
v 1.400000 1.400000 1.460000
v 1.400000 1.410000 2.970000
v 1.400000 0.000000 -1.990000
v 1.400000 0.408000 -2.790000
v 1.400000 0.739000 -2.860000
v 1.400000 0.000000 -1.990000
v 1.400000 0.739000 -2.860000
v 1.400000 1.080000 -2.750000
v 1.400000 0.000000 -1.990000
v 1.400000 1.080000 -2.750000
v 1.400000 1.100000 -2.350000
v 1.400000 0.000000 -1.990000
v 1.400000 1.100000 -2.350000
v 1.400000 1.310000 -1.940000
v 1.400000 0.000000 -1.990000
v 1.400000 1.310000 -1.940000
v 1.400000 1.320000 1.020000
v 1.400000 0.000000 -1.990000
v 1.400000 1.320000 1.020000
v 1.400000 0.000000 1.620000
v 1.400000 0.739000 -2.860000
v 1.400000 0.770000 -3.000000
v 1.400000 0.883000 -2.980000
v 1.400000 0.739000 -2.860000
v 1.400000 0.883000 -2.980000
v 1.400000 0.956000 -2.860000
v 1.400000 0.739000 -2.860000
v 1.400000 0.956000 -2.860000
v 1.400000 1.080000 -2.750000
v 0.875000 0.528000 2.740000
v 0.875000 1.410000 2.970000
v 0.875000 1.400000 1.460000
v 0.875000 0.528000 2.740000
v 0.875000 1.400000 1.460000
v 0.875000 1.320000 1.020000
v 0.875000 0.528000 2.740000
v 0.875000 1.320000 1.020000
v 0.875000 0.000000 1.620000
v 0.875000 0.000000 -1.990000
v 0.875000 0.000000 1.620000
v 0.875000 1.320000 1.020000
v 0.875000 0.000000 -1.990000
v 0.875000 1.320000 1.020000
v 0.875000 1.310000 -1.940000
v 0.875000 0.000000 -1.990000
v 0.875000 1.310000 -1.940000
v 0.875000 1.100000 -2.350000
v 0.875000 0.000000 -1.990000
v 0.875000 1.100000 -2.350000
v 0.875000 1.080000 -2.750000
v 0.875000 0.000000 -1.990000
v 0.875000 1.080000 -2.750000
v 0.875000 0.739000 -2.860000
v 0.875000 0.000000 -1.990000
v 0.875000 0.739000 -2.860000
v 0.875000 0.408000 -2.790000
v 0.875000 0.739000 -2.860000
v 0.875000 1.080000 -2.750000
v 0.875000 0.956000 -2.860000
v 0.875000 0.739000 -2.860000
v 0.875000 0.956000 -2.860000
v 0.875000 0.883000 -2.980000
v 0.875000 0.739000 -2.860000
v 0.875000 0.883000 -2.980000
v 0.875000 0.770000 -3.000000
vt 1.000000 1.863304
vt 0.000000 1.863304
vt 1.000000 1.828653
vt 1.000000 1.828653
vt 0.000000 1.863304
vt 0.000000 1.828653
vt 1.000000 1.828653
vt 0.000000 1.828653
vt 1.000000 1.795625
vt 1.000000 1.795625
vt 0.000000 1.828653
vt 0.000000 1.795625
vt 1.000000 1.795625
vt 0.000000 1.795625
vt 1.000000 1.737211
vt 1.000000 1.737211
vt 0.000000 1.795625
vt 0.000000 1.737211
vt 1.000000 1.737211
vt 0.000000 1.737211
vt 1.000000 1.691790
vt 1.000000 1.691790
vt 0.000000 1.737211
vt 0.000000 1.691790
vt 1.000000 1.691790
vt 0.000000 1.691790
vt 1.000000 1.482960
vt 1.000000 1.482960
vt 0.000000 1.691790
vt 0.000000 1.482960
vt 1.000000 1.482960
vt 0.000000 1.482960
vt 1.000000 0.466936
vt 1.000000 0.466936
vt 0.000000 1.482960
vt 0.000000 0.466936
vt 1.000000 0.466936
vt 0.000000 0.466936
vt 1.000000 0.455959
vt 1.000000 0.455959
vt 0.000000 0.466936
vt 0.000000 0.455959
vt 1.000000 0.455959
vt 0.000000 0.455959
vt 1.000000 0.000000
vt 1.000000 0.000000
vt 0.000000 0.455959
vt 0.000000 0.000000
vt 1.000000 0.000000
vt 0.000000 0.000000
vt 1.000000 3.724771
vt 1.000000 3.724771
vt 0.000000 0.000000
vt 0.000000 3.724771
vt 1.000000 3.724771
vt 0.000000 3.724771
vt 1.000000 3.350887
vt 1.000000 3.350887
vt 0.000000 3.724771
vt 0.000000 3.350887
vt 1.000000 3.350887
vt 0.000000 3.350887
vt 1.000000 2.260836
vt 1.000000 2.260836
vt 0.000000 3.350887
vt 0.000000 2.260836
vt 1.000000 2.260836
vt 0.000000 2.260836
vt 1.000000 1.989672
vt 1.000000 1.989672
vt 0.000000 2.260836
vt 0.000000 1.989672
vt 1.000000 1.989672
vt 0.000000 1.989672
vt 1.000000 1.874045
vt 1.000000 1.874045
vt 0.000000 1.989672
vt 0.000000 1.874045
vt 1.000000 1.874045
vt 0.000000 1.874045
vt 1.000000 1.863304
vt 1.000000 1.863304
vt 0.000000 1.874045
vt 0.000000 1.863304
vt 0.158084 0.820359
vt 0.000000 0.485030
vt 0.395210 0.305389
vt 0.158084 0.820359
vt 0.395210 0.305389
vt 0.419162 0.437126
vt 0.158084 0.820359
vt 0.419162 0.437126
vt 0.422156 0.889222
vt 0.000000 -0.595808
vt 0.122156 -0.835329
vt 0.221257 -0.856287
vt 0.000000 -0.595808
vt 0.221257 -0.856287
vt 0.323353 -0.823353
vt 0.000000 -0.595808
vt 0.323353 -0.823353
vt 0.329341 -0.703593
vt 0.000000 -0.595808
vt 0.329341 -0.703593
vt 0.392216 -0.580838
vt 0.000000 -0.595808
vt 0.392216 -0.580838
vt 0.395210 0.305389
vt 0.000000 -0.595808
vt 0.395210 0.305389
vt 0.000000 0.485030
vt 0.221257 -0.856287
vt 0.230539 -0.898204
vt 0.264371 -0.892216
vt 0.221257 -0.856287
vt 0.264371 -0.892216
vt 0.286228 -0.856287
vt 0.221257 -0.856287
vt 0.286228 -0.856287
vt 0.323353 -0.823353
vt 0.158084 0.820359
vt 0.422156 0.889222
vt 0.419162 0.437126
vt 0.158084 0.820359
vt 0.419162 0.437126
vt 0.395210 0.305389
vt 0.158084 0.820359
vt 0.395210 0.305389
vt 0.000000 0.485030
vt 0.000000 -0.595808
vt 0.000000 0.485030
vt 0.395210 0.305389
vt 0.000000 -0.595808
vt 0.395210 0.305389
vt 0.392216 -0.580838
vt 0.000000 -0.595808
vt 0.392216 -0.580838
vt 0.329341 -0.703593
vt 0.000000 -0.595808
vt 0.329341 -0.703593
vt 0.323353 -0.823353
vt 0.000000 -0.595808
vt 0.323353 -0.823353
vt 0.221257 -0.856287
vt 0.000000 -0.595808
vt 0.221257 -0.856287
vt 0.122156 -0.835329
vt 0.221257 -0.856287
vt 0.323353 -0.823353
vt 0.286228 -0.856287
vt 0.221257 -0.856287
vt 0.286228 -0.856287
vt 0.264371 -0.892216
vt 0.221257 -0.856287
vt 0.264371 -0.892216
vt 0.230539 -0.898204
vn 0.000000 0.174282 -0.984696
vn 0.000000 0.174282 -0.984696
vn 0.000000 0.174282 -0.984696
vn 0.000000 0.174282 -0.984696
vn 0.000000 0.174282 -0.984696
vn 0.000000 0.174282 -0.984696
vn 0.000000 0.174282 -0.984696
vn 0.000000 0.174282 -0.984696
vn 0.000000 0.854336 -0.519720
vn 0.000000 0.854336 -0.519720
vn 0.000000 0.174282 -0.984696
vn 0.000000 0.854336 -0.519720
vn 0.000000 0.854336 -0.519720
vn 0.000000 0.854336 -0.519720
vn 0.000000 0.663614 -0.748075
vn 0.000000 0.663614 -0.748075
vn 0.000000 0.854336 -0.519720
vn 0.000000 0.663614 -0.748075
vn 0.000000 0.663614 -0.748075
vn 0.000000 0.663614 -0.748075
vn 0.000000 0.998752 -0.049938
vn 0.000000 0.998752 -0.049938
vn 0.000000 0.663614 -0.748075
vn 0.000000 0.998752 -0.049938
vn 0.000000 0.998752 -0.049938
vn 0.000000 0.998752 -0.049938
vn 0.000000 0.890043 -0.455876
vn 0.000000 0.890043 -0.455876
vn 0.000000 0.998752 -0.049938
vn 0.000000 0.890043 -0.455876
vn 0.000000 0.890043 -0.455876
vn 0.000000 0.890043 -0.455876
vn 0.000000 0.999994 -0.003378
vn 0.000000 0.999994 -0.003378
vn 0.000000 0.890043 -0.455876
vn 0.000000 0.999994 -0.003378
vn 0.000000 0.999994 -0.003378
vn 0.000000 0.999994 -0.003378
vn 0.000000 0.983870 -0.178885
vn 0.000000 0.983870 -0.178885
vn 0.000000 0.999994 -0.003378
vn 0.000000 0.983870 -0.178885
vn 0.000000 0.983870 -0.178885
vn 0.000000 0.983870 -0.178885
vn 0.000000 0.999978 -0.006622
vn 0.000000 0.999978 -0.006622
vn 0.000000 0.983870 -0.178885
vn 0.000000 0.999978 -0.006622
vn 0.000000 0.999978 -0.006622
vn 0.000000 0.999978 -0.006622
vn 0.000000 -0.252333 0.967641
vn 0.000000 -0.252333 0.967641
vn 0.000000 0.999978 -0.006622
vn 0.000000 -0.252333 0.967641
vn 0.000000 -0.252333 0.967641
vn 0.000000 -0.252333 0.967641
vn 0.000000 -0.904526 0.426419
vn 0.000000 -0.904526 0.426419
vn 0.000000 -0.252333 0.967641
vn 0.000000 -0.904526 0.426419
vn 0.000000 -0.904526 0.426419
vn 0.000000 -0.904526 0.426419
vn 0.000000 -1.000000 0.000000
vn 0.000000 -1.000000 0.000000
vn 0.000000 -0.904526 0.426419
vn 0.000000 -1.000000 0.000000
vn 0.000000 -1.000000 0.000000
vn 0.000000 -1.000000 0.000000
vn 0.000000 -0.890835 -0.454326
vn 0.000000 -0.890835 -0.454326
vn 0.000000 -1.000000 0.000000
vn 0.000000 -0.890835 -0.454326
vn 0.000000 -0.890835 -0.454326
vn 0.000000 -0.890835 -0.454326
vn 0.000000 -0.206904 -0.978361
vn 0.000000 -0.206904 -0.978361
vn 0.000000 -0.890835 -0.454326
vn 0.000000 -0.206904 -0.978361
vn 0.000000 -0.206904 -0.978361
vn 0.000000 -0.206904 -0.978361
vn 0.000000 -0.976351 -0.216192
vn 0.000000 -0.976351 -0.216192
vn 0.000000 -0.206904 -0.978361
vn 0.000000 -0.976351 -0.216192
vn 1.000000 0.000000 0.000000
vn 1.000000 0.000000 0.000000
vn 1.000000 0.000000 0.000000
vn 1.000000 0.000000 0.000000
vn 1.000000 0.000000 0.000000
vn 1.000000 0.000000 0.000000
vn 1.000000 0.000000 0.000000
vn 1.000000 0.000000 0.000000
vn 1.000000 0.000000 0.000000
vn 1.000000 0.000000 0.000000
vn 1.000000 0.000000 0.000000
vn 1.000000 0.000000 0.000000
vn 1.000000 0.000000 0.000000
vn 1.000000 0.000000 0.000000
vn 1.000000 0.000000 0.000000
vn 1.000000 0.000000 0.000000
vn 1.000000 0.000000 0.000000
vn 1.000000 0.000000 0.000000
vn 1.000000 0.000000 0.000000
vn 1.000000 0.000000 0.000000
vn 1.000000 0.000000 0.000000
vn 1.000000 0.000000 0.000000
vn 1.000000 0.000000 0.000000
vn 1.000000 0.000000 0.000000
vn 1.000000 0.000000 0.000000
vn 1.000000 0.000000 0.000000
vn 1.000000 0.000000 0.000000
vn 1.000000 0.000000 0.000000
vn 1.000000 0.000000 0.000000
vn 1.000000 0.000000 0.000000
vn 1.000000 0.000000 0.000000
vn 1.000000 0.000000 0.000000
vn 1.000000 0.000000 0.000000
vn 1.000000 0.000000 0.000000
vn 1.000000 0.000000 0.000000
vn 1.000000 0.000000 0.000000
vn -1.000000 0.000000 0.000000
vn -1.000000 0.000000 0.000000
vn -1.000000 0.000000 0.000000
vn -1.000000 0.000000 0.000000
vn -1.000000 0.000000 0.000000
vn -1.000000 0.000000 0.000000
vn -1.000000 0.000000 0.000000
vn -1.000000 0.000000 0.000000
vn -1.000000 0.000000 0.000000
vn -1.000000 0.000000 0.000000
vn -1.000000 0.000000 0.000000
vn -1.000000 0.000000 0.000000
vn -1.000000 0.000000 0.000000
vn -1.000000 0.000000 0.000000
vn -1.000000 0.000000 0.000000
vn -1.000000 0.000000 0.000000
vn -1.000000 0.000000 0.000000
vn -1.000000 0.000000 0.000000
vn -1.000000 0.000000 0.000000
vn -1.000000 0.000000 0.000000
vn -1.000000 0.000000 0.000000
vn -1.000000 0.000000 0.000000
vn -1.000000 0.000000 0.000000
vn -1.000000 0.000000 0.000000
vn -1.000000 0.000000 0.000000
vn -1.000000 0.000000 0.000000
vn -1.000000 0.000000 0.000000
vn -1.000000 0.000000 0.000000
vn -1.000000 0.000000 0.000000
vn -1.000000 0.000000 0.000000
vn -1.000000 0.000000 0.000000
vn -1.000000 0.000000 0.000000
vn -1.000000 0.000000 0.000000
vn -1.000000 0.000000 0.000000
vn -1.000000 0.000000 0.000000
vn -1.000000 0.000000 0.000000
usemtl tread
f 823/733/823 824/734/824 825/735/825
f 826/736/826 827/737/827 828/738/828
f 829/739/829 830/740/830 831/741/831
f 832/742/832 833/743/833 834/744/834
f 835/745/835 836/746/836 837/747/837
f 838/748/838 839/749/839 840/750/840
f 841/751/841 842/752/842 843/753/843
f 844/754/844 845/755/845 846/756/846
f 847/757/847 848/758/848 849/759/849
f 850/760/850 851/761/851 852/762/852
f 853/763/853 854/764/854 855/765/855
f 856/766/856 857/767/857 858/768/858
f 859/769/859 860/770/860 861/771/861
f 862/772/862 863/773/863 864/774/864
f 865/775/865 866/776/866 867/777/867
f 868/778/868 869/779/869 870/780/870
f 871/781/871 872/782/872 873/783/873
f 874/784/874 875/785/875 876/786/876
f 877/787/877 878/788/878 879/789/879
f 880/790/880 881/791/881 882/792/882
f 883/793/883 884/794/884 885/795/885
f 886/796/886 887/797/887 888/798/888
f 889/799/889 890/800/890 891/801/891
f 892/802/892 893/803/893 894/804/894
f 895/805/895 896/806/896 897/807/897
f 898/808/898 899/809/899 900/810/900
f 901/811/901 902/812/902 903/813/903
f 904/814/904 905/815/905 906/816/906
usemtl treadSide
f 907/817/907 908/818/908 909/819/909
f 910/820/910 911/821/911 912/822/912
f 913/823/913 914/824/914 915/825/915
f 916/826/916 917/827/917 918/828/918
f 919/829/919 920/830/920 921/831/921
f 922/832/922 923/833/923 924/834/924
f 925/835/925 926/836/926 927/837/927
f 928/838/928 929/839/929 930/840/930
f 931/841/931 932/842/932 933/843/933
f 934/844/934 935/845/935 936/846/936
f 937/847/937 938/848/938 939/849/939
f 940/850/940 941/851/941 942/852/942
f 943/853/943 944/854/944 945/855/945
f 946/856/946 947/857/947 948/858/948
f 949/859/949 950/860/950 951/861/951
f 952/862/952 953/863/953 954/864/954
f 955/865/955 956/866/956 957/867/957
f 958/868/958 959/869/959 960/870/960
f 961/871/961 962/872/962 963/873/963
f 964/874/964 965/875/965 966/876/966
f 967/877/967 968/878/968 969/879/969
f 970/880/970 971/881/971 972/882/972
f 973/883/973 974/884/974 975/885/975
f 976/886/976 977/887/977 978/888/978

# Navigation lights. One `p` vertex each, read by the renderer for its
# position only; see docs/tank-model-format.md.

o lightRear
v 0.000000 2.076506 1.530000
p -1

o lightPort
v -0.750000 2.080000 -0.100000
p -1

o lightStarboard
v 0.750000 2.080000 -0.100000
p -1

